<?xml version="1.0" encoding="UTF-8" standalone="no"?>
<!-- Created with Inkscape (http://www.inkscape.org/) -->

<svg
   xmlns:dc="http://purl.org/dc/elements/1.1/"
   xmlns:cc="http://creativecommons.org/ns#"
   xmlns:rdf="http://www.w3.org/1999/02/22-rdf-syntax-ns#"
   xmlns:svg="http://www.w3.org/2000/svg"
   xmlns="http://www.w3.org/2000/svg"
   xmlns:xlink="http://www.w3.org/1999/xlink"
   xmlns:sodipodi="http://sodipodi.sourceforge.net/DTD/sodipodi-0.dtd"
   xmlns:inkscape="http://www.inkscape.org/namespaces/inkscape"
   width="744.09448819"
   height="1052.3622047"
   id="svg2"
   version="1.1"
   inkscape:version="0.47 r22583"
   sodipodi:docname="rh.svg">
  <defs
     id="defs4">
    <inkscape:perspective
       sodipodi:type="inkscape:persp3d"
       inkscape:vp_x="0 : 526.18109 : 1"
       inkscape:vp_y="0 : 1000 : 0"
       inkscape:vp_z="744.09448 : 526.18109 : 1"
       inkscape:persp3d-origin="372.04724 : 350.78739 : 1"
       id="perspective10" />
    <inkscape:perspective
       id="perspective2824"
       inkscape:persp3d-origin="0.5 : 0.33333333 : 1"
       inkscape:vp_z="1 : 0.5 : 1"
       inkscape:vp_y="0 : 1000 : 0"
       inkscape:vp_x="0 : 0.5 : 1"
       sodipodi:type="inkscape:persp3d" />
    <inkscape:perspective
       id="perspective2838"
       inkscape:persp3d-origin="0.5 : 0.33333333 : 1"
       inkscape:vp_z="1 : 0.5 : 1"
       inkscape:vp_y="0 : 1000 : 0"
       inkscape:vp_x="0 : 0.5 : 1"
       sodipodi:type="inkscape:persp3d" />
    <inkscape:perspective
       id="perspective3779"
       inkscape:persp3d-origin="0.5 : 0.33333333 : 1"
       inkscape:vp_z="1 : 0.5 : 1"
       inkscape:vp_y="0 : 1000 : 0"
       inkscape:vp_x="0 : 0.5 : 1"
       sodipodi:type="inkscape:persp3d" />
    <inkscape:perspective
       id="perspective3815"
       inkscape:persp3d-origin="0.5 : 0.33333333 : 1"
       inkscape:vp_z="1 : 0.5 : 1"
       inkscape:vp_y="0 : 1000 : 0"
       inkscape:vp_x="0 : 0.5 : 1"
       sodipodi:type="inkscape:persp3d" />
    <inkscape:perspective
       id="perspective3815-7"
       inkscape:persp3d-origin="0.5 : 0.33333333 : 1"
       inkscape:vp_z="1 : 0.5 : 1"
       inkscape:vp_y="0 : 1000 : 0"
       inkscape:vp_x="0 : 0.5 : 1"
       sodipodi:type="inkscape:persp3d" />
    <inkscape:perspective
       id="perspective3815-0"
       inkscape:persp3d-origin="0.5 : 0.33333333 : 1"
       inkscape:vp_z="1 : 0.5 : 1"
       inkscape:vp_y="0 : 1000 : 0"
       inkscape:vp_x="0 : 0.5 : 1"
       sodipodi:type="inkscape:persp3d" />
    <inkscape:perspective
       id="perspective3815-4"
       inkscape:persp3d-origin="0.5 : 0.33333333 : 1"
       inkscape:vp_z="1 : 0.5 : 1"
       inkscape:vp_y="0 : 1000 : 0"
       inkscape:vp_x="0 : 0.5 : 1"
       sodipodi:type="inkscape:persp3d" />
    <inkscape:perspective
       id="perspective3864"
       inkscape:persp3d-origin="0.5 : 0.33333333 : 1"
       inkscape:vp_z="1 : 0.5 : 1"
       inkscape:vp_y="0 : 1000 : 0"
       inkscape:vp_x="0 : 0.5 : 1"
       sodipodi:type="inkscape:persp3d" />
    <inkscape:perspective
       id="perspective3893"
       inkscape:persp3d-origin="0.5 : 0.33333333 : 1"
       inkscape:vp_z="1 : 0.5 : 1"
       inkscape:vp_y="0 : 1000 : 0"
       inkscape:vp_x="0 : 0.5 : 1"
       sodipodi:type="inkscape:persp3d" />
    <inkscape:perspective
       id="perspective3893-4"
       inkscape:persp3d-origin="0.5 : 0.33333333 : 1"
       inkscape:vp_z="1 : 0.5 : 1"
       inkscape:vp_y="0 : 1000 : 0"
       inkscape:vp_x="0 : 0.5 : 1"
       sodipodi:type="inkscape:persp3d" />
    <inkscape:perspective
       id="perspective3893-5"
       inkscape:persp3d-origin="0.5 : 0.33333333 : 1"
       inkscape:vp_z="1 : 0.5 : 1"
       inkscape:vp_y="0 : 1000 : 0"
       inkscape:vp_x="0 : 0.5 : 1"
       sodipodi:type="inkscape:persp3d" />
    <inkscape:perspective
       id="perspective3893-7"
       inkscape:persp3d-origin="0.5 : 0.33333333 : 1"
       inkscape:vp_z="1 : 0.5 : 1"
       inkscape:vp_y="0 : 1000 : 0"
       inkscape:vp_x="0 : 0.5 : 1"
       sodipodi:type="inkscape:persp3d" />
  </defs>
  <sodipodi:namedview
     id="base"
     pagecolor="#ffffff"
     bordercolor="#666666"
     borderopacity="1.0"
     inkscape:pageopacity="0.0"
     inkscape:pageshadow="2"
     inkscape:zoom="0.24748737"
     inkscape:cx="-370.49172"
     inkscape:cy="652.03392"
     inkscape:document-units="px"
     inkscape:current-layer="layer1"
     showgrid="false"
     inkscape:window-width="1440"
     inkscape:window-height="838"
     inkscape:window-x="-8"
     inkscape:window-y="-8"
     inkscape:window-maximized="1" />
  <metadata
     id="metadata7">
    <rdf:RDF>
      <cc:Work
         rdf:about="">
        <dc:format>image/svg+xml</dc:format>
        <dc:type
           rdf:resource="http://purl.org/dc/dcmitype/StillImage" />
        <dc:title></dc:title>
      </cc:Work>
    </rdf:RDF>
  </metadata>
  <g
     inkscape:label="Layer 1"
     inkscape:groupmode="layer"
     id="layer1">
    <image
       y="-538.60211"
       x="-2028"
       id="image2840"
       height="578"
       width="521"
       xlink:href="file:///C:/Users/phil/Pictures/1%20-%20rush%20hour/bg.png" />
    <g
       id="g2844"
       transform="translate(635.71429,-87.142857)"
       inkscape:export-filename="C:\Users\phil\Pictures\1 - rush hour\background.png"
       inkscape:export-xdpi="103.68987"
       inkscape:export-ydpi="103.68987">
      <path
         style="fill:#f3f3f3"
         d="m 123.78571,358.07647 0,-289.000001 260.5,0 260.5,0 0,289.000001 0,289 -260.5,0 -260.5,0 0,-289 z"
         id="path2860" />
      <path
         style="fill:#e6e6e6"
         d="m 128.66026,644.8215 c -1.502,-1.28437 -3.12018,-4.17061 -3.78162,-6.74503 -0.86531,-3.36789 -1.07059,-73.93612 -0.81596,-280.5 0.18711,-151.8 0.61686,-277.284285 0.95498,-278.853966 0.932,-4.326682 4.25565,-7.184263 9.86089,-8.478108 3.78475,-0.873625 66.80153,-1.167927 250.07954,-1.167927 219.39739,0 245.58297,0.163718 250.40523,1.565585 2.96198,0.861072 5.7276,2.098572 6.14581,2.75 3.24575,5.055738 3.2463,5.104933 3.26152,290.934416 l 0.0151,282.75 -256.75,-0.005 -256.75,-0.005 -2.62545,-2.24504 z m 2.37009,-289.33164 0.25536,-274.586607 2.80576,-2.413392 2.80577,-2.413392 244.94423,0 c 162.62949,0 244.94424,-0.336055 244.94424,-1 0,-0.663947 -82.08084,-0.998744 -244.25,-0.996262 -240.48618,0.0037 -244.29933,0.03382 -247.45145,1.955777 -6.85801,4.181576 -6.29855,-20.777254 -6.29855,280.990826 0,180.38607 0.33755,273.04966 0.99464,273.04966 0.65649,0 1.08146,-93.35258 1.25,-274.58661 z m 473.76672,109.58661 c 0.28125,-58.575 0.61875,-106.59667 0.75,-106.71482 2.26392,-2.03793 6.75892,-2.873 18.23864,-3.38835 l 13.5,-0.60604 -15.14817,0.10461 c -13.40575,0.0926 -15.38993,0.32372 -17.25,2.00959 l -2.10183,1.90499 0,104.64501 c 0,80.05723 -0.28196,104.92697 -1.2,105.84501 -0.9259,0.9259 -50.37778,1.2 -216.5,1.2 -143.19065,0 -215.3,0.33568 -215.3,1.00226 0,0.66738 72.58862,0.91798 217.25,0.75 l 217.25,-0.25226 0.51136,-106.5 z m -352.48106,38.19696 c -0.67194,-0.67193 -3.5303,1.82222 -3.5303,3.08047 0,0.5679 0.90276,0.21556 2.00613,-0.78298 1.10337,-0.99854 1.78925,-2.03241 1.52417,-2.29749 z m 70.50267,1.30304 c 1.35701,-1.85001 1.33579,-1.89707 -0.28297,-0.62756 -0.9625,0.75485 -1.75,1.84235 -1.75,2.41667 0,0.57432 0.12734,0.85672 0.28297,0.62756 0.15563,-0.22917 0.94313,-1.31667 1.75,-2.41667 z m 144.49733,-1.30304 c -0.67194,-0.67193 -3.5303,1.82222 -3.5303,3.08047 0,0.5679 0.90276,0.21556 2.00613,-0.78298 1.10337,-0.99854 1.78925,-2.03241 1.52417,-2.29749 z m 70.50267,1.30304 c 1.35701,-1.85001 1.33579,-1.89707 -0.28297,-0.62756 -0.9625,0.75485 -1.75,1.84235 -1.75,2.41667 0,0.57432 0.12734,0.85672 0.28297,0.62756 0.15563,-0.22917 0.94313,-1.31667 1.75,-2.41667 z m -357.03297,-1.09106 c 0,-0.19039 -0.675,-0.0871 -1.5,0.22943 -0.825,0.31659 -1.5,1.03256 -1.5,1.59106 0,0.58531 0.63541,0.48812 1.5,-0.22943 0.825,-0.68469 1.5,-1.40067 1.5,-1.59106 z m 215,0 c 0,-0.19039 -0.675,-0.0871 -1.5,0.22943 -0.825,0.31659 -1.5,1.03256 -1.5,1.59106 0,0.58531 0.63541,0.48812 1.5,-0.22943 0.825,-0.68469 1.5,-1.40067 1.5,-1.59106 z m -143.4697,-72.21198 c -0.67194,-0.67193 -3.5303,1.82222 -3.5303,3.08047 0,0.5679 0.90276,0.21556 2.00613,-0.78298 1.10337,-0.99854 1.78925,-2.03241 1.52417,-2.29749 z m 70.50267,1.30304 c 1.35701,-1.85001 1.33579,-1.89707 -0.28297,-0.62756 -0.9625,0.75485 -1.75,1.84235 -1.75,2.41667 0,0.57432 0.12734,0.85672 0.28297,0.62756 0.15563,-0.22917 0.94313,-1.31667 1.75,-2.41667 z m 144.49733,-1.30304 c -0.67194,-0.67193 -3.5303,1.82222 -3.5303,3.08047 0,0.5679 0.90276,0.21556 2.00613,-0.78298 1.10337,-0.99854 1.78925,-2.03241 1.52417,-2.29749 z m 70.50267,1.30304 c 1.35701,-1.85001 1.33579,-1.89707 -0.28297,-0.62756 -0.9625,0.75485 -1.75,1.84235 -1.75,2.41667 0,0.57432 0.12734,0.85672 0.28297,0.62756 0.15563,-0.22917 0.94313,-1.31667 1.75,-2.41667 z m -357.03297,-1.09106 c 0,-0.19039 -0.675,-0.0871 -1.5,0.22943 -0.825,0.31659 -1.5,1.03256 -1.5,1.59106 0,0.58531 0.63541,0.48812 1.5,-0.22943 0.825,-0.68469 1.5,-1.40067 1.5,-1.59106 z m 215,0 c 0,-0.19039 -0.675,-0.0871 -1.5,0.22943 -0.825,0.31659 -1.5,1.03256 -1.5,1.59106 0,0.58531 0.63541,0.48812 1.5,-0.22943 0.825,-0.68469 1.5,-1.40067 1.5,-1.59106 z m -143.4697,-72.21198 c -0.67194,-0.67193 -3.5303,1.82222 -3.5303,3.08047 0,0.5679 0.90276,0.21556 2.00613,-0.78298 1.10337,-0.99854 1.78925,-2.03241 1.52417,-2.29749 z m 70.50267,1.30304 c 1.35701,-1.85001 1.33579,-1.89707 -0.28297,-0.62756 -0.9625,0.75485 -1.75,1.84235 -1.75,2.41667 0,0.57432 0.12734,0.85672 0.28297,0.62756 0.15563,-0.22917 0.94313,-1.31667 1.75,-2.41667 z m 144.49733,-1.30304 c -0.67194,-0.67193 -3.5303,1.82222 -3.5303,3.08047 0,0.5679 0.90276,0.21556 2.00613,-0.78298 1.10337,-0.99854 1.78925,-2.03241 1.52417,-2.29749 z m 70.50267,1.30304 c 1.35701,-1.85001 1.33579,-1.89707 -0.28297,-0.62756 -0.9625,0.75485 -1.75,1.84235 -1.75,2.41667 0,0.57432 0.12734,0.85672 0.28297,0.62756 0.15563,-0.22917 0.94313,-1.31667 1.75,-2.41667 z m -357.03297,-1.09106 c 0,-0.19039 -0.675,-0.0871 -1.5,0.22943 -0.825,0.31659 -1.5,1.03256 -1.5,1.59106 0,0.58531 0.63541,0.48812 1.5,-0.22943 0.825,-0.68469 1.5,-1.40067 1.5,-1.59106 z m 215,0 c 0,-0.19039 -0.675,-0.0871 -1.5,0.22943 -0.825,0.31659 -1.5,1.03256 -1.5,1.59106 0,0.58531 0.63541,0.48812 1.5,-0.22943 0.825,-0.68469 1.5,-1.40067 1.5,-1.59106 z m -143.4697,-72.21198 c -0.67194,-0.67193 -3.5303,1.82222 -3.5303,3.08047 0,0.5679 0.90276,0.21556 2.00613,-0.78298 1.10337,-0.99854 1.78925,-2.03241 1.52417,-2.29749 z m 70.50267,1.30304 c 1.35701,-1.85001 1.33579,-1.89707 -0.28297,-0.62756 -0.9625,0.75485 -1.75,1.84235 -1.75,2.41667 0,0.57432 0.12734,0.85672 0.28297,0.62756 0.15563,-0.22917 0.94313,-1.31667 1.75,-2.41667 z m 144.49733,-1.30304 c -0.67194,-0.67193 -3.5303,1.82222 -3.5303,3.08047 0,0.5679 0.90276,0.21556 2.00613,-0.78298 1.10337,-0.99854 1.78925,-2.03241 1.52417,-2.29749 z m 70.50267,1.30304 c 1.35701,-1.85001 1.33579,-1.89707 -0.28297,-0.62756 -0.9625,0.75485 -1.75,1.84235 -1.75,2.41667 0,0.57432 0.12734,0.85672 0.28297,0.62756 0.15563,-0.22917 0.94313,-1.31667 1.75,-2.41667 z m -357.03297,-1.09106 c 0,-0.19039 -0.675,-0.0872 -1.5,0.22943 -0.825,0.31659 -1.5,1.03256 -1.5,1.59106 0,0.58531 0.63541,0.48812 1.5,-0.22943 0.825,-0.68469 1.5,-1.40067 1.5,-1.59106 z m 215,0 c 0,-0.19039 -0.675,-0.0872 -1.5,0.22943 -0.825,0.31659 -1.5,1.03256 -1.5,1.59106 0,0.58531 0.63541,0.48812 1.5,-0.22943 0.825,-0.68469 1.5,-1.40067 1.5,-1.59106 z m 243,-12.40894 c 0,-0.62491 -5.98827,-1 -15.96482,-1 -14.76049,0 -16.0429,-0.14591 -17,-1.93426 -0.68437,-1.27876 -1.04037,-25.25501 -1.05049,-70.75 -0.01,-44.79832 -0.35364,-68.29223 -0.98469,-67.31574 -0.60138,0.93057 -0.97519,27.47386 -0.98469,69.92126 -0.0139,62.27671 0.13332,68.58549 1.63968,70.25 1.47473,1.62956 3.43521,1.82874 18,1.82874 10.23001,0 16.34501,-0.37412 16.34501,-1 z m -386.4697,-59.80304 c -0.67194,-0.67193 -3.5303,1.82222 -3.5303,3.08047 0,0.5679 0.90276,0.21556 2.00613,-0.78298 1.10337,-0.99854 1.78925,-2.03241 1.52417,-2.29749 z m 70.50267,1.30304 c 1.35701,-1.85001 1.33579,-1.89707 -0.28297,-0.62756 -0.9625,0.75485 -1.75,1.84235 -1.75,2.41667 0,0.57432 0.12734,0.85672 0.28297,0.62756 0.15563,-0.22917 0.94313,-1.31667 1.75,-2.41667 z m 144.49733,-1.30304 c -0.67194,-0.67193 -3.5303,1.82222 -3.5303,3.08047 0,0.5679 0.90276,0.21556 2.00613,-0.78298 1.10337,-0.99854 1.78925,-2.03241 1.52417,-2.29749 z m 70.50267,1.30304 c 1.35701,-1.85001 1.33579,-1.89707 -0.28297,-0.62756 -0.9625,0.75485 -1.75,1.84235 -1.75,2.41667 0,0.57432 0.12734,0.85672 0.28297,0.62756 0.15563,-0.22917 0.94313,-1.31667 1.75,-2.41667 z m -357.03297,-1.09106 c 0,-0.19039 -0.675,-0.0872 -1.5,0.22943 -0.825,0.31659 -1.5,1.03256 -1.5,1.59106 0,0.58531 0.63541,0.48812 1.5,-0.22943 0.825,-0.68469 1.5,-1.40067 1.5,-1.59106 z m 215,0 c 0,-0.19039 -0.675,-0.0872 -1.5,0.22943 -0.825,0.31659 -1.5,1.03256 -1.5,1.59106 0,0.58531 0.63541,0.48812 1.5,-0.22943 0.825,-0.68469 1.5,-1.40067 1.5,-1.59106 z m -143.4697,-72.21198 c -0.67194,-0.67193 -3.5303,1.82222 -3.5303,3.08047 0,0.5679 0.90276,0.21556 2.00613,-0.78298 1.10337,-0.99854 1.78925,-2.03241 1.52417,-2.29749 z m 70.50267,1.30304 c 1.35701,-1.85001 1.33579,-1.89707 -0.28297,-0.62756 -0.9625,0.75485 -1.75,1.84235 -1.75,2.41667 0,0.57432 0.12734,0.85672 0.28297,0.62756 0.15563,-0.22917 0.94313,-1.31667 1.75,-2.41667 z m 144.49733,-1.30304 c -0.67194,-0.67193 -3.5303,1.82222 -3.5303,3.08047 0,0.5679 0.90276,0.21556 2.00613,-0.78298 1.10337,-0.99854 1.78925,-2.03241 1.52417,-2.29749 z m 70.50267,1.30304 c 1.35701,-1.85001 1.33579,-1.89707 -0.28297,-0.62756 -0.9625,0.75485 -1.75,1.84235 -1.75,2.41667 0,0.57432 0.12734,0.85672 0.28297,0.62756 0.15563,-0.22917 0.94313,-1.31667 1.75,-2.41667 z m -357.03297,-1.09106 c 0,-0.1904 -0.675,-0.0872 -1.5,0.22943 -0.825,0.31659 -1.5,1.03256 -1.5,1.59106 0,0.58531 0.63541,0.48812 1.5,-0.22943 0.825,-0.68469 1.5,-1.40067 1.5,-1.59106 z m 215,0 c 0,-0.1904 -0.675,-0.0872 -1.5,0.22943 -0.825,0.31659 -1.5,1.03256 -1.5,1.59106 0,0.58531 0.63541,0.48812 1.5,-0.22943 0.825,-0.68469 1.5,-1.40067 1.5,-1.59106 z M 249.04886,105.32647 c -0.34809,-6.642981 -0.0745,-8.390876 1.91538,-12.236626 1.27681,-2.467644 4.1234,-5.737691 6.32577,-7.266772 l 4.0043,-2.780147 123.0935,-0.01025 c 67.70142,-0.0056 123.94949,0.233515 124.9957,0.531448 1.04621,0.297933 0.3272,-0.252408 -1.5978,-1.22298 -3.27221,-1.649823 -10.91956,-1.784915 -117.5,-2.075664 -62.7,-0.171044 -117.68063,-0.0208 -122.17918,0.33387 -9.39249,0.740518 -14.26907,3.217033 -18.22843,9.257102 -2.91157,4.44164 -4.06029,15.469079 -2.10352,20.193159 0.68958,1.66477 1.34976,3.02686 1.46708,3.02686 0.11732,0 0.0306,-3.4875 -0.1928,-7.75 z"
         id="path2858" />
      <path
         style="fill:#d5d5d5"
         d="m 129.05332,644.32647 c -1.84178,-1.60441 -3.59417,-4.41631 -4.20665,-6.75 -1.57628,-6.006 -1.47177,-551.319903 0.10673,-556.883981 1.691,-5.960612 5.02333,-9.110826 11.12655,-10.518469 3.99442,-0.921269 62.448,-1.130483 251.20576,-0.899101 243.69279,0.298722 246.03752,0.320308 250,2.30155 2.51418,1.257091 4.6322,3.300092 5.70197,5.5 1.59003,3.269807 1.70513,22.129162 1.75,286.750001 l 0.048,283.25 -256.28777,0 -256.28778,0 -3.15684,-2.75 z m 2.73239,-288.16993 0.5,-274.253288 2.80576,-2.413391 2.80577,-2.413392 245.01756,0 c 232.81178,0 245.00077,-0.08718 244.68052,-1.75 -0.3199,-1.660988 -12.80021,-1.75 -245.36736,-1.75 -232.41513,0 -245.16892,0.09081 -247.72236,1.763927 -1.48062,0.970161 -3.4858,2.975342 -4.45596,4.455959 -1.67259,2.552635 -1.77821,16.778722 -2.03978,274.736075 -0.15171,149.62422 -0.0226,273.08851 0.28688,274.36508 0.30951,1.27657 1.10864,2.13908 1.77585,1.91668 0.94527,-0.31508 1.32352,-60.95794 1.71312,-274.65765 z m 474.01131,109.41993 c 0.28122,-58.85 0.61872,-107.06848 0.75,-107.15217 2.4163,-1.54051 8.91111,-2.34783 18.88791,-2.34783 10.3118,0 12.35078,-0.24763 12.35078,-1.5 0,-1.2646 -2.2833,-1.5 -14.54966,-1.5 -15.09819,0 -19.44948,0.94943 -20.82916,4.5448 -0.34165,0.89033 -0.62118,48.32687 -0.62118,105.41454 0,85.69796 -0.23438,103.99029 -1.34425,104.9114 -0.97773,0.81144 -59.9854,1.18565 -216.41671,1.37244 -118.28986,0.14125 -215.38,0.56438 -215.75589,0.94029 -0.37588,0.37591 -0.38618,1.16442 -0.0229,1.75225 0.46621,0.75434 64.85287,0.99457 218.85014,0.81653 l 218.18959,-0.25225 0.51131,-107 z m -426.996,66.25 c 0.009,-13.56193 0.43391,-24.91112 0.96505,-25.75 0.79899,-1.26192 4.84755,-1.51688 25.50769,-1.60634 13.50687,-0.0585 24.81114,-0.35952 25.1206,-0.66898 0.30945,-0.30945 -0.38934,-1.07212 -1.55287,-1.69483 -1.45092,-0.77651 -9.45642,-1.03757 -25.48281,-0.83102 -21.33105,0.27493 -23.55053,0.46717 -25.47013,2.20616 -2.02885,1.83796 -2.10284,2.77329 -2.10284,26.58333 0,13.57309 0.3,24.97835 0.66667,25.34501 1.99249,1.99249 2.33466,-1.44338 2.34864,-23.58333 z m 71.98469,-1.25 c 0,-18.40743 0.3063,-24.58021 1.25,-25.19098 0.6875,-0.44496 12.05,-0.92295 25.25,-1.06219 14.20416,-0.14984 24.13104,-0.64499 24.32104,-1.21312 0.60395,-1.8059 -4.40386,-2.14109 -27.45225,-1.83752 -17.72777,0.2335 -23.44844,0.62145 -24.71753,1.67625 -1.45506,1.20937 -1.65126,4.36804 -1.65126,26.58334 0,13.86599 0.28777,25.49865 0.63948,25.85037 1.92256,1.92256 2.36052,-2.67987 2.36052,-24.80615 z m 73.4845,-25.11396 c 1.60916,-1.17532 6.40322,-1.43038 25.34749,-1.34858 12.84965,0.0555 23.64359,-0.17971 23.98654,-0.52266 1.85825,-1.85825 -4.6579,-2.48569 -25.95775,-2.49949 -21.79067,-0.0141 -23.82382,0.13405 -26,1.89475 -2.34335,1.89596 -2.363,2.08401 -2.66195,25.47013 -0.22962,17.96298 0.008,24.1017 1,25.83994 1.10336,1.93327 1.37718,-1.49528 1.80117,-22.55237 0.46918,-23.30179 0.62231,-24.92158 2.4845,-26.28172 z m 69.53081,26.36396 c 0.009,-13.56193 0.43391,-24.91112 0.96505,-25.75 0.79899,-1.26192 4.84755,-1.51688 25.50769,-1.60634 13.50687,-0.0585 24.81114,-0.35952 25.1206,-0.66898 0.30945,-0.30945 -0.38934,-1.07212 -1.55287,-1.69483 -1.45092,-0.77651 -9.45642,-1.03757 -25.48281,-0.83102 -21.33105,0.27493 -23.55053,0.46717 -25.47013,2.20616 -2.02468,1.83418 -2.10284,2.78821 -2.10284,25.66821 0,13.06977 0.27314,24.47503 0.60699,25.34501 1.81671,4.73427 2.39445,-0.70374 2.40832,-22.66821 z m 71.98469,-1.25 c 0,-18.40743 0.3063,-24.58021 1.25,-25.19098 0.6875,-0.44496 12.05,-0.92295 25.25,-1.06219 14.20416,-0.14984 24.13104,-0.64499 24.32104,-1.21312 0.60395,-1.8059 -4.40386,-2.14109 -27.45225,-1.83752 -17.72777,0.2335 -23.44844,0.62145 -24.71753,1.67625 -1.45506,1.20937 -1.65126,4.36804 -1.65126,26.58334 0,13.86599 0.28777,25.49865 0.63948,25.85037 1.92256,1.92256 2.36052,-2.67987 2.36052,-24.80615 z m 73.4845,-25.11396 c 1.60916,-1.17532 6.40322,-1.43038 25.34749,-1.34858 12.84965,0.0555 23.64359,-0.17971 23.98654,-0.52266 1.85825,-1.85825 -4.6579,-2.48569 -25.95775,-2.49949 -21.79067,-0.0141 -23.82382,0.13405 -26,1.89475 -2.34335,1.89596 -2.363,2.08401 -2.66195,25.47013 -0.22962,17.96298 0.008,24.1017 1,25.83994 1.10336,1.93327 1.37718,-1.49528 1.80117,-22.55237 0.46918,-23.30179 0.62231,-24.92158 2.4845,-26.28172 z M 178.80102,459.82647 c 0.009,-13.56193 0.43391,-24.91112 0.96505,-25.75 0.79899,-1.26192 4.84755,-1.51688 25.50769,-1.60634 13.50687,-0.0585 24.81114,-0.35952 25.1206,-0.66898 0.30945,-0.30945 -0.38934,-1.07212 -1.55287,-1.69483 -1.45092,-0.77651 -9.45642,-1.03757 -25.48281,-0.83102 -21.33105,0.27493 -23.55053,0.46717 -25.47013,2.20616 -2.02885,1.83796 -2.10284,2.77329 -2.10284,26.58333 0,13.57309 0.3,24.97835 0.66667,25.34501 1.99249,1.99249 2.33466,-1.44338 2.34864,-23.58333 z m 71.98469,-1.25 c 0,-18.40743 0.3063,-24.58021 1.25,-25.19098 0.6875,-0.44496 12.05,-0.92295 25.25,-1.06219 14.20416,-0.14984 24.13104,-0.64499 24.32104,-1.21312 0.60395,-1.8059 -4.40386,-2.14109 -27.45225,-1.83752 -17.72777,0.2335 -23.44844,0.62145 -24.71753,1.67625 -1.45506,1.20937 -1.65126,4.36804 -1.65126,26.58334 0,13.86599 0.28777,25.49865 0.63948,25.85037 1.92256,1.92256 2.36052,-2.67987 2.36052,-24.80615 z m 73.4845,-25.11396 c 1.60916,-1.17532 6.40322,-1.43038 25.34749,-1.34858 12.84965,0.0555 23.64359,-0.17971 23.98654,-0.52266 1.85825,-1.85825 -4.6579,-2.48569 -25.95775,-2.49949 -21.79067,-0.0141 -23.82382,0.13405 -26,1.89475 -2.34335,1.89596 -2.363,2.08401 -2.66195,25.47013 -0.22962,17.96298 0.008,24.1017 1,25.83994 1.10336,1.93327 1.37718,-1.49528 1.80117,-22.55237 0.46918,-23.30179 0.62231,-24.92158 2.4845,-26.28172 z m 69.53081,26.36396 c 0.009,-13.56193 0.43391,-24.91112 0.96505,-25.75 0.79899,-1.26192 4.84755,-1.51688 25.50769,-1.60634 13.50687,-0.0585 24.81114,-0.35952 25.1206,-0.66898 0.30945,-0.30945 -0.38934,-1.07212 -1.55287,-1.69483 -1.45092,-0.77651 -9.45642,-1.03757 -25.48281,-0.83102 -21.33105,0.27493 -23.55053,0.46717 -25.47013,2.20616 -2.02468,1.83418 -2.10284,2.78821 -2.10284,25.66821 0,13.06977 0.27314,24.47503 0.60699,25.34501 1.81671,4.73427 2.39445,-0.70374 2.40832,-22.66821 z m 71.98469,-1.25 c 0,-18.40743 0.3063,-24.58021 1.25,-25.19098 0.6875,-0.44496 12.05,-0.92295 25.25,-1.06219 14.20416,-0.14984 24.13104,-0.64499 24.32104,-1.21312 0.60395,-1.8059 -4.40386,-2.14109 -27.45225,-1.83752 -17.72777,0.2335 -23.44844,0.62145 -24.71753,1.67625 -1.45506,1.20937 -1.65126,4.36804 -1.65126,26.58334 0,13.86599 0.28777,25.49865 0.63948,25.85037 1.92256,1.92256 2.36052,-2.67987 2.36052,-24.80615 z m 73.4845,-25.11396 c 1.60916,-1.17532 6.40322,-1.43038 25.34749,-1.34858 12.84965,0.0555 23.64359,-0.17971 23.98654,-0.52266 1.85825,-1.85825 -4.6579,-2.48569 -25.95775,-2.49949 -21.79067,-0.0141 -23.82382,0.13405 -26,1.89475 -2.34335,1.89596 -2.363,2.08401 -2.66195,25.47013 -0.22962,17.96298 0.008,24.1017 1,25.83994 1.10336,1.93327 1.37718,-1.49528 1.80117,-22.55237 0.46918,-23.30179 0.62231,-24.92158 2.4845,-26.28172 z M 178.80102,387.82647 c 0.009,-13.56193 0.43391,-24.91112 0.96505,-25.75 0.79899,-1.26192 4.84755,-1.51688 25.50769,-1.60634 13.50687,-0.0585 24.81114,-0.35952 25.1206,-0.66898 0.30945,-0.30945 -0.38934,-1.07212 -1.55287,-1.69483 -1.45092,-0.77651 -9.45642,-1.03757 -25.48281,-0.83102 -21.33105,0.27493 -23.55053,0.46717 -25.47013,2.20616 -2.02885,1.83796 -2.10284,2.77329 -2.10284,26.58333 0,13.57309 0.3,24.97835 0.66667,25.34501 1.99249,1.99249 2.33466,-1.44338 2.34864,-23.58333 z m 71.98469,-1.25 c 0,-18.40743 0.3063,-24.58021 1.25,-25.19098 0.6875,-0.44496 12.05,-0.92295 25.25,-1.06219 14.20416,-0.14984 24.13104,-0.64499 24.32104,-1.21312 0.60395,-1.8059 -4.40386,-2.14109 -27.45225,-1.83752 -17.72777,0.2335 -23.44844,0.62145 -24.71753,1.67625 -1.45506,1.20937 -1.65126,4.36804 -1.65126,26.58334 0,13.86599 0.28777,25.49865 0.63948,25.85037 1.92256,1.92256 2.36052,-2.67987 2.36052,-24.80615 z m 73.4845,-25.11396 c 1.60916,-1.17532 6.40322,-1.43038 25.34749,-1.34858 12.84965,0.0555 23.64359,-0.17971 23.98654,-0.52266 1.85825,-1.85825 -4.6579,-2.48569 -25.95775,-2.49949 -21.79067,-0.0141 -23.82382,0.13405 -26,1.89475 -2.34335,1.89596 -2.363,2.08401 -2.66195,25.47013 -0.22962,17.96298 0.008,24.1017 1,25.83994 1.10336,1.93327 1.37718,-1.49528 1.80117,-22.55237 0.46918,-23.30179 0.62231,-24.92158 2.4845,-26.28172 z m 69.53081,26.36396 c 0.009,-13.56193 0.43391,-24.91112 0.96505,-25.75 0.79899,-1.26192 4.84755,-1.51688 25.50769,-1.60634 13.50687,-0.0585 24.81114,-0.35952 25.1206,-0.66898 0.30945,-0.30945 -0.38934,-1.07212 -1.55287,-1.69483 -1.45092,-0.77651 -9.45642,-1.03757 -25.48281,-0.83102 -21.33105,0.27493 -23.55053,0.46717 -25.47013,2.20616 -2.02468,1.83418 -2.10284,2.78821 -2.10284,25.66821 0,13.06977 0.27314,24.47503 0.60699,25.34501 1.81671,4.73427 2.39445,-0.70374 2.40832,-22.66821 z m 71.98469,-1.25 c 0,-18.40743 0.3063,-24.58021 1.25,-25.19098 0.6875,-0.44496 12.05,-0.92295 25.25,-1.06219 14.20416,-0.14984 24.13104,-0.64499 24.32104,-1.21312 0.60395,-1.8059 -4.40386,-2.14109 -27.45225,-1.83752 -17.72777,0.2335 -23.44844,0.62145 -24.71753,1.67625 -1.45506,1.20937 -1.65126,4.36804 -1.65126,26.58334 0,13.86599 0.28777,25.49865 0.63948,25.85037 1.92256,1.92256 2.36052,-2.67987 2.36052,-24.80615 z m 73.4845,-25.11396 c 1.60916,-1.17532 6.40322,-1.43038 25.34749,-1.34858 12.84965,0.0555 23.64359,-0.17971 23.98654,-0.52266 1.85825,-1.85825 -4.6579,-2.48569 -25.95775,-2.49949 -21.79067,-0.0141 -23.82382,0.13405 -26,1.89475 -2.34335,1.89596 -2.363,2.08401 -2.66195,25.47013 -0.22962,17.96298 0.008,24.1017 1,25.83994 1.10336,1.93327 1.37718,-1.49528 1.80117,-22.55237 0.46918,-23.30179 0.62231,-24.92158 2.4845,-26.28172 z M 178.80102,315.82647 c 0.009,-13.56193 0.43391,-24.91112 0.96505,-25.75 0.79899,-1.26192 4.84755,-1.51688 25.50769,-1.60634 13.50687,-0.0585 24.81114,-0.35952 25.1206,-0.66898 0.30945,-0.30945 -0.38934,-1.07212 -1.55287,-1.69483 -1.45092,-0.77651 -9.45642,-1.03757 -25.48281,-0.83102 -21.33105,0.27493 -23.55053,0.46717 -25.47013,2.20616 -2.02885,1.83796 -2.10284,2.77329 -2.10284,26.58333 0,13.57309 0.3,24.97835 0.66667,25.34501 1.99249,1.99249 2.33466,-1.44338 2.34864,-23.58333 z m 71.98469,-1.25 c 0,-18.40743 0.3063,-24.58021 1.25,-25.19098 0.6875,-0.44496 12.05,-0.92295 25.25,-1.06219 14.20416,-0.14984 24.13104,-0.64499 24.32104,-1.21312 0.60395,-1.8059 -4.40386,-2.14109 -27.45225,-1.83752 -17.72777,0.2335 -23.44844,0.62145 -24.71753,1.67625 -1.45506,1.20937 -1.65126,4.36804 -1.65126,26.58334 0,13.86599 0.28777,25.49865 0.63948,25.85037 1.92256,1.92256 2.36052,-2.67987 2.36052,-24.80615 z m 73.4845,-25.11396 c 1.60916,-1.17532 6.40322,-1.43038 25.34749,-1.34858 12.84965,0.0555 23.64359,-0.17971 23.98654,-0.52266 1.85825,-1.85825 -4.6579,-2.48569 -25.95775,-2.49949 -21.79067,-0.0141 -23.82382,0.13405 -26,1.89475 -2.34335,1.89596 -2.363,2.08401 -2.66195,25.47013 -0.22962,17.96298 0.008,24.1017 1,25.83994 1.10336,1.93327 1.37718,-1.49528 1.80117,-22.55237 0.46918,-23.30179 0.62231,-24.92158 2.4845,-26.28172 z m 69.53081,26.36396 c 0.009,-13.56193 0.43391,-24.91112 0.96505,-25.75 0.79899,-1.26192 4.84755,-1.51688 25.50769,-1.60634 13.50687,-0.0585 24.81114,-0.35952 25.1206,-0.66898 0.30945,-0.30945 -0.38934,-1.07212 -1.55287,-1.69483 -1.45092,-0.77651 -9.45642,-1.03757 -25.48281,-0.83102 -21.33105,0.27493 -23.55053,0.46717 -25.47013,2.20616 -2.02468,1.83418 -2.10284,2.78821 -2.10284,25.66821 0,13.06977 0.27314,24.47503 0.60699,25.34501 1.81671,4.73427 2.39445,-0.70374 2.40832,-22.66821 z m 71.98469,-1.25 c 0,-18.40743 0.3063,-24.58021 1.25,-25.19098 0.6875,-0.44496 12.05,-0.92295 25.25,-1.06219 14.20416,-0.14984 24.13104,-0.64499 24.32104,-1.21312 0.60395,-1.8059 -4.40386,-2.14109 -27.45225,-1.83752 -17.72777,0.2335 -23.44844,0.62145 -24.71753,1.67625 -1.45506,1.20937 -1.65126,4.36804 -1.65126,26.58334 0,13.86599 0.28777,25.49865 0.63948,25.85037 1.92256,1.92256 2.36052,-2.67987 2.36052,-24.80615 z m 73.4845,-25.11396 c 1.60916,-1.17532 6.40322,-1.43038 25.34749,-1.34858 12.84965,0.0555 23.64359,-0.17971 23.98654,-0.52266 1.85825,-1.85825 -4.6579,-2.48569 -25.95775,-2.49949 -21.79067,-0.0141 -23.82382,0.13405 -26,1.89475 -2.34335,1.89596 -2.363,2.08401 -2.66195,25.47013 -0.22962,17.96298 0.008,24.1017 1,25.83994 1.10336,1.93327 1.37718,-1.49528 1.80117,-22.55237 0.46918,-23.30179 0.62231,-24.92158 2.4845,-26.28172 z M 639.52148,274.7803 c -0.28325,-0.85222 -4.88284,-1.28474 -15.74803,-1.48085 -9.24068,-0.16678 -15.87314,-0.71291 -16.66783,-1.37244 -1.07,-0.88803 -1.31991,-14.23108 -1.31991,-70.47298 0,-58.05561 -0.22344,-69.37756 -1.36916,-69.37756 -0.80528,0 -1.62443,1.54441 -1.98899,3.75 -0.34091,2.0625 -0.62479,33.646 -0.63084,70.18555 -0.0107,64.34668 0.0499,66.50046 1.92603,68.5 1.83405,1.95468 2.84792,2.0487 19.06795,1.76828 12.80293,-0.22134 17.02981,-0.6003 16.73078,-1.5 z M 178.80102,243.82647 c 0.009,-13.56193 0.43391,-24.91112 0.96505,-25.75 0.79899,-1.26192 4.84755,-1.51688 25.50769,-1.60634 13.50687,-0.0585 24.81114,-0.35952 25.1206,-0.66898 0.30945,-0.30945 -0.38934,-1.07212 -1.55287,-1.69483 -1.45092,-0.77651 -9.45642,-1.03757 -25.48281,-0.83102 -21.33105,0.27493 -23.55053,0.46717 -25.47013,2.20616 -2.02885,1.83796 -2.10284,2.77329 -2.10284,26.58333 0,13.57309 0.3,24.97835 0.66667,25.34501 1.99249,1.99249 2.33466,-1.44338 2.34864,-23.58333 z m 71.98469,-1.25 c 0,-18.40743 0.3063,-24.58021 1.25,-25.19098 0.6875,-0.44496 12.05,-0.92295 25.25,-1.06219 14.20416,-0.14984 24.13104,-0.64499 24.32104,-1.21312 0.60395,-1.8059 -4.40386,-2.14109 -27.45225,-1.83752 -17.72777,0.2335 -23.44844,0.62145 -24.71753,1.67625 -1.45506,1.20937 -1.65126,4.36804 -1.65126,26.58334 0,13.86599 0.28777,25.49865 0.63948,25.85037 1.92256,1.92256 2.36052,-2.67987 2.36052,-24.80615 z m 73.4845,-25.11396 c 1.60916,-1.17532 6.40322,-1.43038 25.34749,-1.34858 12.84965,0.0555 23.64359,-0.17971 23.98654,-0.52266 1.85825,-1.85825 -4.6579,-2.48569 -25.95775,-2.49949 -21.79067,-0.0141 -23.82382,0.13405 -26,1.89475 -2.34335,1.89596 -2.363,2.08401 -2.66195,25.47013 -0.22962,17.96298 0.008,24.1017 1,25.83994 1.10336,1.93327 1.37718,-1.49528 1.80117,-22.55237 0.46918,-23.30179 0.62231,-24.92158 2.4845,-26.28172 z m 69.53081,26.36396 c 0.009,-13.56193 0.43391,-24.91112 0.96505,-25.75 0.79899,-1.26192 4.84755,-1.51688 25.50769,-1.60634 13.50687,-0.0585 24.81114,-0.35952 25.1206,-0.66898 0.30945,-0.30945 -0.38934,-1.07212 -1.55287,-1.69483 -1.45092,-0.77651 -9.45642,-1.03757 -25.48281,-0.83102 -21.33105,0.27493 -23.55053,0.46717 -25.47013,2.20616 -2.02468,1.83418 -2.10284,2.78821 -2.10284,25.66821 0,13.06977 0.27314,24.47503 0.60699,25.34501 1.81671,4.73427 2.39445,-0.70374 2.40832,-22.66821 z m 71.98469,-1.25 c 0,-18.40743 0.3063,-24.58021 1.25,-25.19098 0.6875,-0.44496 12.05,-0.92295 25.25,-1.06219 14.20416,-0.14984 24.13104,-0.64499 24.32104,-1.21312 0.60395,-1.8059 -4.40386,-2.14109 -27.45225,-1.83752 -17.72777,0.2335 -23.44844,0.62145 -24.71753,1.67625 -1.45506,1.20937 -1.65126,4.36804 -1.65126,26.58334 0,13.86599 0.28777,25.49865 0.63948,25.85037 1.92256,1.92256 2.36052,-2.67987 2.36052,-24.80615 z m 73.4845,-25.11396 c 1.60916,-1.17532 6.40322,-1.43038 25.34749,-1.34858 12.84965,0.0555 23.64359,-0.17971 23.98654,-0.52266 1.85825,-1.85825 -4.6579,-2.48569 -25.95775,-2.49949 -21.79067,-0.0141 -23.82382,0.13405 -26,1.89475 -2.34335,1.89596 -2.363,2.08401 -2.66195,25.47013 -0.22962,17.96298 0.008,24.1017 1,25.83994 1.10336,1.93327 1.37718,-1.49528 1.80117,-22.55237 0.46918,-23.30179 0.62231,-24.92158 2.4845,-26.28172 z M 178.80102,171.82647 c 0.009,-13.56193 0.43391,-24.91112 0.96505,-25.75 0.79899,-1.26192 4.84755,-1.51688 25.50769,-1.60634 13.50687,-0.0585 24.81114,-0.35952 25.1206,-0.66898 0.30945,-0.30945 -0.38934,-1.07213 -1.55287,-1.69483 -1.45092,-0.77651 -9.45642,-1.03758 -25.48281,-0.83102 -21.33105,0.27492 -23.55053,0.46717 -25.47013,2.20616 -2.02885,1.83796 -2.10284,2.77329 -2.10284,26.58333 0,13.57309 0.3,24.97835 0.66667,25.34501 1.99249,1.99249 2.33466,-1.44338 2.34864,-23.58333 z m 71.98469,-1.25 c 0,-18.40743 0.3063,-24.58021 1.25,-25.19098 0.6875,-0.44496 12.05,-0.92295 25.25,-1.06219 14.20416,-0.14984 24.13104,-0.64499 24.32104,-1.21312 0.60395,-1.8059 -4.40386,-2.1411 -27.45225,-1.83752 -17.72777,0.23349 -23.44844,0.62145 -24.71753,1.67625 -1.45506,1.20937 -1.65126,4.36804 -1.65126,26.58334 0,13.86599 0.28777,25.49865 0.63948,25.85037 1.92256,1.92256 2.36052,-2.67987 2.36052,-24.80615 z m 73.4845,-25.11396 c 1.60916,-1.17532 6.40322,-1.43039 25.34749,-1.34858 12.84965,0.0555 23.64359,-0.17971 23.98654,-0.52266 1.85825,-1.85825 -4.6579,-2.48569 -25.95775,-2.49949 -21.79067,-0.0141 -23.82382,0.13405 -26,1.89475 -2.34335,1.89596 -2.363,2.084 -2.66195,25.47013 -0.22962,17.96298 0.008,24.1017 1,25.83994 1.10336,1.93327 1.37718,-1.49528 1.80117,-22.55237 0.46918,-23.30179 0.62231,-24.92158 2.4845,-26.28172 z m 69.53081,26.36396 c 0.009,-13.56193 0.43391,-24.91112 0.96505,-25.75 0.79899,-1.26192 4.84755,-1.51688 25.50769,-1.60634 13.50687,-0.0585 24.81114,-0.35952 25.1206,-0.66898 0.30945,-0.30945 -0.38934,-1.07213 -1.55287,-1.69483 -1.45092,-0.77651 -9.45642,-1.03758 -25.48281,-0.83102 -21.33105,0.27492 -23.55053,0.46717 -25.47013,2.20616 -2.02468,1.83418 -2.10284,2.78821 -2.10284,25.66821 0,13.06977 0.27314,24.47503 0.60699,25.34501 1.81671,4.73427 2.39445,-0.70374 2.40832,-22.66821 z m 71.98469,-1.25 c 0,-18.40743 0.3063,-24.58021 1.25,-25.19098 0.6875,-0.44496 12.05,-0.92295 25.25,-1.06219 14.20416,-0.14984 24.13104,-0.64499 24.32104,-1.21312 0.60395,-1.8059 -4.40386,-2.1411 -27.45225,-1.83752 -17.72777,0.23349 -23.44844,0.62145 -24.71753,1.67625 -1.45506,1.20937 -1.65126,4.36804 -1.65126,26.58334 0,13.86599 0.28777,25.49865 0.63948,25.85037 1.92256,1.92256 2.36052,-2.67987 2.36052,-24.80615 z m 73.4845,-25.11396 c 1.60916,-1.17532 6.40322,-1.43039 25.34749,-1.34858 12.84965,0.0555 23.64359,-0.17971 23.98654,-0.52266 1.85825,-1.85825 -4.6579,-2.48569 -25.95775,-2.49949 -21.79067,-0.0141 -23.82382,0.13405 -26,1.89475 -2.34335,1.89596 -2.363,2.084 -2.66195,25.47013 -0.22962,17.96298 0.008,24.1017 1,25.83994 1.10336,1.93327 1.37718,-1.49528 1.80117,-22.55237 0.46918,-23.30179 0.62231,-24.92158 2.4845,-26.28172 z M 254.78152,118.82647 c -0.002,-0.1375 -1.1273,-2.46377 -2.5,-5.16948 -4.21566,-8.30946 -3.04628,-19.155878 2.64399,-24.523758 5.69353,-5.370955 -1.68961,-5.081593 129.94656,-5.092916 l 122.13609,-0.01051 4.38878,2.452933 c 3.11633,1.741752 4.38877,2.06422 4.38877,1.112223 0,-2.138285 -5.72118,-6.36723 -9.77944,-7.228706 -2.04631,-0.434381 -57.94556,-0.789787 -124.22056,-0.789787 l -120.5,0 -4.77239,2.805276 c -6.94356,4.081517 -10.08697,9.362834 -10.56049,17.742895 -0.21037,3.72307 0.14158,8.35718 0.78212,10.29804 1.44165,4.36822 4.72169,8.65379 6.62334,8.65379 0.78508,0 1.42554,-0.1125 1.42323,-0.25 z"
         id="path2856" />
      <path
         style="fill:#cacaca"
         d="m 130.66719,645.57338 c -1.44019,-0.78266 -3.46519,-3.12714 -4.5,-5.20996 -1.82595,-3.67517 -1.89045,-11.88929 -2.18547,-278.28695 -0.21631,-195.32319 0.0103,-275.96766 0.78552,-279.588262 1.30884,-6.112562 5.61057,-10.711796 11.51847,-12.315072 5.83228,-1.582753 492.87259,-1.541785 497.60078,0.04186 1.86957,0.626188 4.46972,2.088687 5.7781,3.25 5.44921,4.836688 5.12112,-13.811839 5.12112,291.079354 l 0,282.53212 -255.75,-0.04 c -219.23654,-0.0344 -256.12385,-0.24324 -258.36852,-1.46309 z m 2.11852,-288.08023 c 0.275,-150.65417 0.86226,-274.643229 1.30501,-275.531231 1.86423,-3.738931 4.32449,-3.88545 65.24204,-3.88545 32.69912,0 59.42843,0.3375 59.39846,0.75 -0.03,0.4125 -2.13123,2.115177 -4.66947,3.783727 -6.40677,4.211599 -8.68627,8.977068 -9.12044,19.066984 -0.28922,6.7215 0.0106,8.80467 1.76078,12.23537 2.57766,5.05263 5.14852,6.79916 11.33362,7.69954 5.54307,0.80692 6.01045,0.16754 1.55989,-2.13393 -4.23466,-2.18983 -6.4138,-5.00375 -7.87269,-10.16599 -2.50532,-8.86497 1.34393,-19.243097 8.37469,-22.579414 3.18948,-1.513504 13.9747,-1.656287 125.10911,-1.656287 l 121.61874,0 3.93714,2.485402 c 3.92042,2.474858 5.52094,4.58862 7.16013,9.456199 0.58295,1.731084 0.69373,0.618167 0.34257,-3.441601 -0.61852,-7.150881 -2.53375,-10.101003 -8.55784,-13.182104 l -4.42174,-2.261557 61.81955,-0.02817 61.81955,-0.02817 -0.31955,-2.25 -0.31955,-2.25 -245.01187,-0.252002 c -235.74573,-0.242472 -245.14086,-0.182821 -248.42273,1.577265 -1.87598,1.006097 -4.23314,3.362477 -5.23813,5.236401 -1.75694,3.275997 -1.82727,13.940765 -1.82727,277.089398 0,280.95376 -0.0718,275.32518 3.5,274.43229 0.6621,-0.16552 1.16895,-92.8061 1.5,-274.16667 z m 473.82193,214.07479 c 0.83349,-1.8293 1.14999,-30.8489 1.16891,-107.17506 0.0143,-57.56659 0.2829,-104.92526 0.59695,-105.24147 0.31405,-0.31622 6.94777,-0.79994 14.7416,-1.07494 l 14.17061,-0.5 0,-3 0,-3 -12.62447,-0.27894 c -10.20712,-0.22553 -13.55804,0.067 -17.5,1.52795 -7.28644,2.70038 -7.35457,3.08679 -7.27355,41.25099 0.0379,17.875 0.0305,64.1125 -0.0165,102.75 l -0.0855,70.25 -212.94098,0 c -140.88197,0 -213.15013,0.3384 -213.55902,1 -0.33992,0.55 -1.7306,1 -3.0904,1 -2.83018,0 -4.3905,2.76529 -2.30532,4.08561 0.7969,0.5046 94.96466,0.89033 219.4852,0.89908 l 218.08949,0.0153 1.14296,-2.50853 z M 179.78571,532.0285 c 0,-17.18337 0.34346,-25.04627 1.11489,-25.52303 0.61318,-0.37897 12.10517,-0.63798 25.53773,-0.57558 21.70627,0.10084 24.49235,-0.0676 25.0476,-1.51459 0.38225,-0.99613 -0.11757,-2.17185 -1.28774,-3.02909 -1.54498,-1.13183 -6.64863,-1.34424 -26.55948,-1.1054 -22.59519,0.27105 -24.82208,0.45425 -26.75,2.20065 -2.03007,1.83892 -2.103,2.76887 -2.103,26.81574 0,25.02914 0.53113,29.28016 3.51525,28.13504 1.25785,-0.48268 1.48475,-4.36497 1.48475,-25.40374 z m 72.23277,-0.81017 0.26723,-24.64186 24.64186,-0.26723 c 21.09235,-0.22874 24.83205,-0.49641 25.96225,-1.85822 1.11547,-1.34406 1.025,-1.80698 -0.58299,-2.98276 -1.49959,-1.09653 -6.94045,-1.39179 -25.64715,-1.39179 -13.05907,0 -24.8754,0.43025 -26.25851,0.9561 -4.11666,1.56516 -4.81492,6.62834 -4.44554,32.23571 0.27082,18.77535 0.59333,23.0458 1.79654,23.78854 3.55533,2.1947 3.9909,-0.44334 4.26631,-25.83849 z m 142.76723,0.81017 c 0,-17.18337 0.34346,-25.04627 1.11489,-25.52303 0.61318,-0.37897 12.10517,-0.63798 25.53774,-0.57558 21.70626,0.10084 24.49234,-0.0676 25.04759,-1.51459 0.38225,-0.99613 -0.11757,-2.17185 -1.28774,-3.02909 -1.54498,-1.13183 -6.64863,-1.34424 -26.55948,-1.1054 -22.59518,0.27105 -24.82208,0.45425 -26.75,2.20065 -2.03314,1.8417 -2.103,2.75689 -2.103,27.55 0,25.85867 0.36421,28.60995 3.62186,27.35988 1.11966,-0.42966 1.37814,-5.18659 1.37814,-25.36284 z m 72.23277,-0.81017 0.26723,-24.64186 24.64186,-0.26723 c 21.09235,-0.22874 24.83205,-0.49641 25.96225,-1.85822 1.11547,-1.34406 1.025,-1.80698 -0.58299,-2.98276 -1.49959,-1.09653 -6.94045,-1.39179 -25.64715,-1.39179 -13.05907,0 -24.8754,0.43025 -26.25851,0.9561 -4.11666,1.56516 -4.81492,6.62834 -4.44554,32.23571 0.27082,18.77535 0.59333,23.0458 1.79654,23.78854 3.55533,2.1947 3.9909,-0.44334 4.26631,-25.83849 z m -143.46028,1.35814 c 0.14987,-13.2 0.47325,-24.5625 0.71862,-25.25 0.34036,-0.95367 6.23251,-1.25 24.85506,-1.25 21.20685,0 24.58403,-0.21097 25.74364,-1.60821 1.13401,-1.3664 1.0485,-1.81748 -0.56869,-3 -1.50211,-1.09838 -7.01085,-1.39179 -26.13046,-1.39179 -13.3249,0 -24.95553,0.27953 -25.84586,0.62118 -3.95497,1.51767 -4.54538,5.3067 -4.53115,29.07916 0.008,12.53981 0.29117,23.83577 0.63036,25.10213 0.43795,1.63513 1.23104,2.2148 2.73634,2 2.08348,-0.29731 2.1243,-0.71202 2.39214,-24.30247 z m 215,0 c 0.14987,-13.2 0.47325,-24.5625 0.71862,-25.25 0.34036,-0.95367 6.23251,-1.25 24.85506,-1.25 21.20685,0 24.58403,-0.21097 25.74364,-1.60821 1.13401,-1.3664 1.0485,-1.81748 -0.56869,-3 -1.50211,-1.09838 -7.01085,-1.39179 -26.13046,-1.39179 -13.3249,0 -24.95553,0.27953 -25.84586,0.62118 -3.95497,1.51767 -4.54538,5.3067 -4.53115,29.07916 0.008,12.53981 0.29117,23.83577 0.63036,25.10213 0.43795,1.63513 1.23104,2.2148 2.73634,2 2.08348,-0.29731 2.1243,-0.71202 2.39214,-24.30247 z M 179.78571,460.0285 c 0,-17.18337 0.34346,-25.04627 1.11489,-25.52303 0.61318,-0.37897 12.10517,-0.63798 25.53773,-0.57558 21.70627,0.10084 24.49235,-0.0676 25.0476,-1.51459 0.38225,-0.99613 -0.11757,-2.17185 -1.28774,-3.02909 -1.54498,-1.13183 -6.64863,-1.34424 -26.55948,-1.1054 -22.59519,0.27105 -24.82208,0.45425 -26.75,2.20065 -2.03007,1.83892 -2.103,2.76887 -2.103,26.81574 0,25.02914 0.53113,29.28016 3.51525,28.13504 1.25785,-0.48268 1.48475,-4.36497 1.48475,-25.40374 z m 72.23277,-0.81017 0.26723,-24.64186 24.64186,-0.26723 c 21.09235,-0.22874 24.83205,-0.49641 25.96225,-1.85822 1.11547,-1.34406 1.025,-1.80698 -0.58299,-2.98276 -1.50502,-1.1005 -7.0956,-1.39179 -26.71225,-1.39179 -23.16635,0 -24.93651,0.12764 -26.73679,1.92792 -2.80386,2.80386 -3.28782,8.19856 -2.91021,32.4401 0.27625,17.73474 0.60648,21.87265 1.80459,22.61228 3.55532,2.19482 3.9909,-0.44325 4.26631,-25.83844 z m 142.76723,0.81017 c 0,-17.18337 0.34346,-25.04627 1.11489,-25.52303 0.61318,-0.37897 12.10517,-0.63798 25.53774,-0.57558 21.70626,0.10084 24.49234,-0.0676 25.04759,-1.51459 0.38225,-0.99613 -0.11757,-2.17185 -1.28774,-3.02909 -1.54498,-1.13183 -6.64863,-1.34424 -26.55948,-1.1054 -22.59518,0.27105 -24.82208,0.45425 -26.75,2.20065 -2.03314,1.8417 -2.103,2.75689 -2.103,27.55 0,25.85867 0.36421,28.60995 3.62186,27.35988 1.11966,-0.42966 1.37814,-5.18659 1.37814,-25.36284 z m 72.23277,-0.81017 0.26723,-24.64186 24.64186,-0.26723 c 21.09235,-0.22874 24.83205,-0.49641 25.96225,-1.85822 1.11547,-1.34406 1.025,-1.80698 -0.58299,-2.98276 -1.50502,-1.1005 -7.0956,-1.39179 -26.71225,-1.39179 -23.16635,0 -24.93651,0.12764 -26.73679,1.92792 -2.80386,2.80386 -3.28782,8.19856 -2.91021,32.4401 0.27625,17.73474 0.60648,21.87265 1.80459,22.61228 3.55532,2.19482 3.9909,-0.44325 4.26631,-25.83844 z m -143.46028,1.35814 c 0.14987,-13.2 0.47325,-24.5625 0.71862,-25.25 0.34036,-0.95367 6.23251,-1.25 24.85506,-1.25 21.20685,0 24.58403,-0.21097 25.74364,-1.60821 1.13401,-1.3664 1.0485,-1.81748 -0.56869,-3 -1.50211,-1.09838 -7.01085,-1.39179 -26.13046,-1.39179 -13.3249,0 -24.95553,0.27953 -25.84586,0.62118 -3.95497,1.51767 -4.54538,5.3067 -4.53115,29.07916 0.008,12.53981 0.29117,23.83577 0.63036,25.10213 0.43795,1.63513 1.23104,2.2148 2.73634,2 2.08348,-0.29731 2.1243,-0.71202 2.39214,-24.30247 z m 215,0 c 0.14987,-13.2 0.47325,-24.5625 0.71862,-25.25 0.34036,-0.95367 6.23251,-1.25 24.85506,-1.25 21.20685,0 24.58403,-0.21097 25.74364,-1.60821 1.13401,-1.3664 1.0485,-1.81748 -0.56869,-3 -1.50211,-1.09838 -7.01085,-1.39179 -26.13046,-1.39179 -13.3249,0 -24.95553,0.27953 -25.84586,0.62118 -3.95497,1.51767 -4.54538,5.3067 -4.53115,29.07916 0.008,12.53981 0.29117,23.83577 0.63036,25.10213 0.43795,1.63513 1.23104,2.2148 2.73634,2 2.08348,-0.29731 2.1243,-0.71202 2.39214,-24.30247 z M 179.78571,388.0285 c 0,-17.18337 0.34346,-25.04627 1.11489,-25.52303 0.61318,-0.37897 12.10517,-0.63798 25.53773,-0.57558 21.70627,0.10084 24.49235,-0.0676 25.0476,-1.51459 0.38225,-0.99613 -0.11757,-2.17185 -1.28774,-3.02909 -1.54498,-1.13183 -6.64863,-1.34424 -26.55948,-1.1054 -22.59519,0.27105 -24.82208,0.45425 -26.75,2.20065 -2.03007,1.83892 -2.103,2.76887 -2.103,26.81574 0,25.02914 0.53113,29.28016 3.51525,28.13504 1.25785,-0.48268 1.48475,-4.36497 1.48475,-25.40374 z m 72.23277,-0.81017 0.26723,-24.64186 24.64186,-0.26723 c 21.09235,-0.22874 24.83205,-0.49641 25.96225,-1.85822 1.11547,-1.34406 1.025,-1.80698 -0.58299,-2.98276 -1.50502,-1.1005 -7.0956,-1.39179 -26.71225,-1.39179 -23.16635,0 -24.93651,0.12764 -26.73679,1.92792 -2.80386,2.80386 -3.28782,8.19856 -2.91021,32.4401 0.27625,17.73474 0.60648,21.87265 1.80459,22.61228 3.55532,2.19482 3.9909,-0.44325 4.26631,-25.83844 z m 142.76723,0.81017 c 0,-17.18337 0.34346,-25.04627 1.11489,-25.52303 0.61318,-0.37897 12.10517,-0.63798 25.53774,-0.57558 21.70626,0.10084 24.49234,-0.0676 25.04759,-1.51459 0.38225,-0.99613 -0.11757,-2.17185 -1.28774,-3.02909 -1.54498,-1.13183 -6.64863,-1.34424 -26.55948,-1.1054 -22.59518,0.27105 -24.82208,0.45425 -26.75,2.20065 -2.03314,1.8417 -2.103,2.75689 -2.103,27.55 0,25.85867 0.36421,28.60995 3.62186,27.35988 1.11966,-0.42966 1.37814,-5.18659 1.37814,-25.36284 z m 72.23277,-0.81017 0.26723,-24.64186 24.64186,-0.26723 c 21.09235,-0.22874 24.83205,-0.49641 25.96225,-1.85822 1.11547,-1.34406 1.025,-1.80698 -0.58299,-2.98276 -1.50502,-1.1005 -7.0956,-1.39179 -26.71225,-1.39179 -23.16635,0 -24.93651,0.12764 -26.73679,1.92792 -2.80386,2.80386 -3.28782,8.19856 -2.91021,32.4401 0.27625,17.73474 0.60648,21.87265 1.80459,22.61228 3.55532,2.19482 3.9909,-0.44325 4.26631,-25.83844 z m -143.46028,1.35814 c 0.14987,-13.2 0.47325,-24.5625 0.71862,-25.25 0.34036,-0.95367 6.23251,-1.25 24.85506,-1.25 21.20685,0 24.58403,-0.21097 25.74364,-1.60821 1.13401,-1.3664 1.0485,-1.81748 -0.56869,-3 -1.50211,-1.09838 -7.01085,-1.39179 -26.13046,-1.39179 -13.3249,0 -24.95553,0.27953 -25.84586,0.62118 -3.95497,1.51767 -4.54538,5.3067 -4.53115,29.07916 0.008,12.53981 0.29117,23.83577 0.63036,25.10213 0.43795,1.63513 1.23104,2.2148 2.73634,2 2.08348,-0.29731 2.1243,-0.71202 2.39214,-24.30247 z m 215,0 c 0.14987,-13.2 0.47325,-24.5625 0.71862,-25.25 0.34036,-0.95367 6.23251,-1.25 24.85506,-1.25 21.20685,0 24.58403,-0.21097 25.74364,-1.60821 1.13401,-1.3664 1.0485,-1.81748 -0.56869,-3 -1.50211,-1.09838 -7.01085,-1.39179 -26.13046,-1.39179 -13.3249,0 -24.95553,0.27953 -25.84586,0.62118 -3.95497,1.51767 -4.54538,5.3067 -4.53115,29.07916 0.008,12.53981 0.29117,23.83577 0.63036,25.10213 0.43795,1.63513 1.23104,2.2148 2.73634,2 2.08348,-0.29731 2.1243,-0.71202 2.39214,-24.30247 z M 179.78571,316.0285 c 0,-17.18337 0.34346,-25.04627 1.11489,-25.52303 0.61318,-0.37897 12.10517,-0.63798 25.53773,-0.57558 21.70627,0.10084 24.49235,-0.0676 25.0476,-1.51459 0.38225,-0.99613 -0.11757,-2.17185 -1.28774,-3.02909 -1.54498,-1.13183 -6.64863,-1.34424 -26.55948,-1.1054 -22.59519,0.27105 -24.82208,0.45425 -26.75,2.20065 -2.03007,1.83892 -2.103,2.76887 -2.103,26.81574 0,25.02914 0.53113,29.28016 3.51525,28.13504 1.25785,-0.48268 1.48475,-4.36497 1.48475,-25.40374 z m 72.23277,-0.81017 0.26723,-24.64186 24.64186,-0.26723 c 21.09235,-0.22874 24.83205,-0.49641 25.96225,-1.85822 1.11547,-1.34406 1.025,-1.80698 -0.58299,-2.98276 -1.50502,-1.1005 -7.0956,-1.39179 -26.71225,-1.39179 -23.16635,0 -24.93651,0.12764 -26.73679,1.92792 -2.80386,2.80386 -3.28782,8.19856 -2.91021,32.4401 0.27625,17.73474 0.60648,21.87265 1.80459,22.61228 3.55532,2.19482 3.9909,-0.44325 4.26631,-25.83844 z m 142.76723,0.81017 c 0,-17.18337 0.34346,-25.04627 1.11489,-25.52303 0.61318,-0.37897 12.10517,-0.63798 25.53774,-0.57558 21.70626,0.10084 24.49234,-0.0676 25.04759,-1.51459 0.38225,-0.99613 -0.11757,-2.17185 -1.28774,-3.02909 -1.54498,-1.13183 -6.64863,-1.34424 -26.55948,-1.1054 -22.59518,0.27105 -24.82208,0.45425 -26.75,2.20065 -2.03314,1.8417 -2.103,2.75689 -2.103,27.55 0,25.85867 0.36421,28.60995 3.62186,27.35988 1.11966,-0.42966 1.37814,-5.18659 1.37814,-25.36284 z m 72.23277,-0.81017 0.26723,-24.64186 24.64186,-0.26723 c 21.09235,-0.22874 24.83205,-0.49641 25.96225,-1.85822 1.11547,-1.34406 1.025,-1.80698 -0.58299,-2.98276 -1.50502,-1.1005 -7.0956,-1.39179 -26.71225,-1.39179 -23.16635,0 -24.93651,0.12764 -26.73679,1.92792 -2.80386,2.80386 -3.28782,8.19856 -2.91021,32.4401 0.27625,17.73474 0.60648,21.87265 1.80459,22.61228 3.55532,2.19482 3.9909,-0.44325 4.26631,-25.83844 z m -143.46028,1.35814 c 0.14987,-13.2 0.47325,-24.5625 0.71862,-25.25 0.34036,-0.95367 6.23251,-1.25 24.85506,-1.25 21.20685,0 24.58403,-0.21097 25.74364,-1.60821 1.13401,-1.3664 1.0485,-1.81748 -0.56869,-3 -1.50211,-1.09838 -7.01085,-1.39179 -26.13046,-1.39179 -13.3249,0 -24.95553,0.27953 -25.84586,0.62118 -3.95497,1.51767 -4.54538,5.3067 -4.53115,29.07916 0.008,12.53981 0.29117,23.83577 0.63036,25.10213 0.43795,1.63513 1.23104,2.2148 2.73634,2 2.08348,-0.29731 2.1243,-0.71202 2.39214,-24.30247 z m 215,0 c 0.14987,-13.2 0.47325,-24.5625 0.71862,-25.25 0.34036,-0.95367 6.23251,-1.25 24.85506,-1.25 21.20685,0 24.58403,-0.21097 25.74364,-1.60821 1.13401,-1.3664 1.0485,-1.81748 -0.56869,-3 -1.50211,-1.09838 -7.01085,-1.39179 -26.13046,-1.39179 -13.3249,0 -24.95553,0.27953 -25.84586,0.62118 -3.95497,1.51767 -4.54538,5.3067 -4.53115,29.07916 0.008,12.53981 0.29117,23.83577 0.63036,25.10213 0.43795,1.63513 1.23104,2.2148 2.73634,2 2.08348,-0.29731 2.1243,-0.71202 2.39214,-24.30247 z m 101.54483,-40.88455 c 1.17247,-3.05539 -0.9898,-3.5627 -16.35955,-3.83828 l -15.45777,-0.27717 -0.52374,-70 c -0.28806,-38.5 -0.62556,-70.1125 -0.75,-70.25 -0.12445,-0.1375 -1.12626,-0.25 -2.22626,-0.25 -1.41456,0 -2,0.66667 -2,2.27749 0,1.25262 -0.64976,3.20515 -1.4439,4.33895 -1.22828,1.75361 -1.41495,12.00434 -1.25,68.64225 l 0.1939,66.58078 2.18713,2.33027 c 2.15128,2.29206 2.47353,2.32544 19.65985,2.03639 13.17569,-0.2216 17.59509,-0.61279 17.97034,-1.59068 z M 179.78571,244.0285 c 0,-17.18337 0.34346,-25.04627 1.11489,-25.52303 0.61318,-0.37897 12.10517,-0.63798 25.53773,-0.57558 21.70627,0.10084 24.49235,-0.0676 25.0476,-1.51459 0.38225,-0.99613 -0.11757,-2.17185 -1.28774,-3.02909 -1.54498,-1.13183 -6.64863,-1.34424 -26.55948,-1.1054 -22.59519,0.27105 -24.82208,0.45425 -26.75,2.20065 -2.03007,1.83892 -2.103,2.76887 -2.103,26.81574 0,25.02914 0.53113,29.28016 3.51525,28.13504 1.25785,-0.48268 1.48475,-4.36497 1.48475,-25.40374 z m 72.23277,-0.81017 0.26723,-24.64186 24.64186,-0.26723 c 21.09235,-0.22874 24.83205,-0.49641 25.96225,-1.85822 1.11547,-1.34406 1.025,-1.80698 -0.58299,-2.98276 -1.50502,-1.1005 -7.0956,-1.39179 -26.71225,-1.39179 -23.16635,0 -24.93651,0.12764 -26.73679,1.92792 -2.80386,2.80386 -3.28782,8.19856 -2.91021,32.4401 0.27625,17.73474 0.60648,21.87265 1.80459,22.61228 3.55532,2.19482 3.9909,-0.44325 4.26631,-25.83844 z m 142.76723,0.81017 c 0,-17.18337 0.34346,-25.04627 1.11489,-25.52303 0.61318,-0.37897 12.10517,-0.63798 25.53774,-0.57558 21.70626,0.10084 24.49234,-0.0676 25.04759,-1.51459 0.38225,-0.99613 -0.11757,-2.17185 -1.28774,-3.02909 -1.54498,-1.13183 -6.64863,-1.34424 -26.55948,-1.1054 -22.59518,0.27105 -24.82208,0.45425 -26.75,2.20065 -2.03314,1.8417 -2.103,2.75689 -2.103,27.55 0,25.85867 0.36421,28.60995 3.62186,27.35988 1.11966,-0.42966 1.37814,-5.18659 1.37814,-25.36284 z m 72.23277,-0.81017 0.26723,-24.64186 24.64186,-0.26723 c 21.09235,-0.22874 24.83205,-0.49641 25.96225,-1.85822 1.11547,-1.34406 1.025,-1.80698 -0.58299,-2.98276 -1.50502,-1.1005 -7.0956,-1.39179 -26.71225,-1.39179 -23.16635,0 -24.93651,0.12764 -26.73679,1.92792 -2.80386,2.80386 -3.28782,8.19856 -2.91021,32.4401 0.27625,17.73474 0.60648,21.87265 1.80459,22.61228 3.55532,2.19482 3.9909,-0.44325 4.26631,-25.83844 z m -143.46028,1.35814 c 0.14987,-13.2 0.47325,-24.5625 0.71862,-25.25 0.34036,-0.95367 6.23251,-1.25 24.85506,-1.25 21.20685,0 24.58403,-0.21097 25.74364,-1.60821 1.13401,-1.3664 1.0485,-1.81748 -0.56869,-3 -1.50211,-1.09838 -7.01085,-1.39179 -26.13046,-1.39179 -13.3249,0 -24.95553,0.27953 -25.84586,0.62118 -3.95497,1.51767 -4.54538,5.3067 -4.53115,29.07916 0.008,12.53981 0.29117,23.83577 0.63036,25.10213 0.43795,1.63513 1.23104,2.2148 2.73634,2 2.08348,-0.29731 2.1243,-0.71202 2.39214,-24.30247 z m 215,0 c 0.14987,-13.2 0.47325,-24.5625 0.71862,-25.25 0.34036,-0.95367 6.23251,-1.25 24.85506,-1.25 21.20685,0 24.58403,-0.21097 25.74364,-1.60821 1.13401,-1.3664 1.0485,-1.81748 -0.56869,-3 -1.50211,-1.09838 -7.01085,-1.39179 -26.13046,-1.39179 -13.3249,0 -24.95553,0.27953 -25.84586,0.62118 -3.95497,1.51767 -4.54538,5.3067 -4.53115,29.07916 0.008,12.53981 0.29117,23.83577 0.63036,25.10213 0.43795,1.63513 1.23104,2.2148 2.73634,2 2.08348,-0.29731 2.1243,-0.71202 2.39214,-24.30247 z M 179.78571,172.0285 c 0,-17.18337 0.34346,-25.04627 1.11489,-25.52303 0.61318,-0.37898 12.10517,-0.63798 25.53773,-0.57558 21.70627,0.10084 24.49235,-0.0676 25.0476,-1.51459 0.38225,-0.99613 -0.11757,-2.17185 -1.28774,-3.02909 -1.54498,-1.13183 -6.64863,-1.34424 -26.55948,-1.1054 -22.59519,0.27105 -24.82208,0.45425 -26.75,2.20065 -2.03007,1.83892 -2.103,2.76887 -2.103,26.81574 0,25.02914 0.53113,29.28016 3.51525,28.13504 1.25785,-0.48268 1.48475,-4.36497 1.48475,-25.40374 z m 72.23277,-0.81017 0.26723,-24.64186 24.64186,-0.26723 c 21.09235,-0.22874 24.83205,-0.49641 25.96225,-1.85822 1.11547,-1.34406 1.025,-1.80698 -0.58299,-2.98276 -1.49959,-1.09653 -6.94045,-1.39179 -25.64715,-1.39179 -13.05907,0 -24.8754,0.43024 -26.25851,0.9561 -4.11666,1.56515 -4.81492,6.62834 -4.44554,32.23571 0.27082,18.77535 0.59333,23.0458 1.79654,23.78854 3.55533,2.1947 3.9909,-0.44334 4.26631,-25.83849 z m 142.76723,0.81017 c 0,-17.18337 0.34346,-25.04627 1.11489,-25.52303 0.61318,-0.37898 12.10517,-0.63798 25.53774,-0.57558 21.70626,0.10084 24.49234,-0.0676 25.04759,-1.51459 0.38225,-0.99613 -0.11757,-2.17185 -1.28774,-3.02909 -1.54498,-1.13183 -6.64863,-1.34424 -26.55948,-1.1054 -22.59518,0.27105 -24.82208,0.45425 -26.75,2.20065 -2.03314,1.8417 -2.103,2.75688 -2.103,27.55 0,25.85867 0.36421,28.60995 3.62186,27.35988 1.11966,-0.42966 1.37814,-5.18659 1.37814,-25.36284 z m 72.23277,-0.81017 0.26723,-24.64186 24.64186,-0.26723 c 21.09235,-0.22874 24.83205,-0.49641 25.96225,-1.85822 1.11547,-1.34406 1.025,-1.80698 -0.58299,-2.98276 -1.49959,-1.09653 -6.94045,-1.39179 -25.64715,-1.39179 -13.05907,0 -24.8754,0.43024 -26.25851,0.9561 -4.11666,1.56515 -4.81492,6.62834 -4.44554,32.23571 0.27082,18.77535 0.59333,23.0458 1.79654,23.78854 3.55533,2.1947 3.9909,-0.44334 4.26631,-25.83849 z m -143.46028,1.35814 c 0.14987,-13.2 0.47325,-24.5625 0.71862,-25.25 0.34036,-0.95368 6.23251,-1.25 24.85506,-1.25 21.20685,0 24.58403,-0.21098 25.74364,-1.60821 1.13401,-1.36641 1.0485,-1.81749 -0.56869,-3 -1.50211,-1.09838 -7.01085,-1.39179 -26.13046,-1.39179 -13.3249,0 -24.95553,0.27953 -25.84586,0.62118 -3.95497,1.51767 -4.54538,5.3067 -4.53115,29.07916 0.008,12.53981 0.29117,23.83577 0.63036,25.10213 0.43795,1.63513 1.23104,2.2148 2.73634,2 2.08348,-0.29731 2.1243,-0.71202 2.39214,-24.30247 z m 215,0 c 0.14987,-13.2 0.47325,-24.5625 0.71862,-25.25 0.34036,-0.95368 6.23251,-1.25 24.85506,-1.25 21.20685,0 24.58403,-0.21098 25.74364,-1.60821 1.13401,-1.36641 1.0485,-1.81749 -0.56869,-3 -1.50211,-1.09838 -7.01085,-1.39179 -26.13046,-1.39179 -13.3249,0 -24.95553,0.27953 -25.84586,0.62118 -3.95497,1.51767 -4.54538,5.3067 -4.53115,29.07916 0.008,12.53981 0.29117,23.83577 0.63036,25.10213 0.43795,1.63513 1.23104,2.2148 2.73634,2 2.08348,-0.29731 2.1243,-0.71202 2.39214,-24.30247 z m -40.7551,-66.81736 c 0.28456,-3.19955 0.20298,-6.326079 -0.1813,-6.947846 -0.7801,-1.262229 -1.64228,1.769456 -2.06615,7.265206 l -0.26994,3.5 -109.66683,0.5 c -60.31676,0.275 -110.00622,0.83946 -110.42103,1.25437 -0.41482,0.4149 49.38526,0.6399 110.66683,0.5 l 111.42103,-0.25437 0.51739,-5.81736 z"
         id="path2854" />
      <path
         style="fill:#b8b8b8"
         d="m 130.50771,644.94099 c -1.5279,-1.13967 -3.5529,-3.48791 -4.5,-5.21832 -1.61576,-2.95209 -1.73797,-20.14154 -1.98087,-278.61146 -0.2338,-248.7858 -0.1059,-275.925813 1.32056,-280.22048 1.9872,-5.982903 5.9379,-9.347898 12.67672,-10.797374 3.85747,-0.829715 70.66247,-1.049692 250.33474,-0.824309 l 245.07316,0.307422 4.02056,2.660762 c 7.84002,5.188442 7.33313,-2.332961 7.33313,108.811799 0,84.61426 -0.20968,99.37998 -1.42857,100.59887 -2.07228,2.07228 -28.20284,2.02724 -33.19162,-0.0572 -6.97609,-2.9148 -3.78885,-3.98116 13.49259,-4.51423 l 16.20929,-0.5 -0.06,-96.23526 c -0.0374,-60.0601 -0.42716,-97.201019 -1.03678,-98.804435 -0.62078,-1.632765 -2.60334,-3.288678 -5.43944,-4.543215 -2.45444,-1.08572 -4.73283,-2.411223 -5.06307,-2.945563 -0.38592,-0.624445 -88.50611,-0.971528 -246.65906,-0.971528 l -246.05863,0 -3.88236,3.882353 -3.88235,3.882353 0,275.002635 0,275.00264 2.5,1.63806 c 1.375,0.90094 2.5,2.22425 2.5,2.9407 0,0.71645 1.16124,2.39357 2.58053,3.72695 l 2.58052,2.42431 247.66948,0.24869 247.66947,0.2487 3,-2.40405 3,-2.40405 0,-142.59471 c 0,-108.0848 0.28272,-142.59471 1.16821,-142.59465 0.64252,4e-5 1.88002,0.27321 2.75,0.60706 1.43245,0.54968 1.58179,14.47528 1.58179,147.5 l 0,146.89301 -255.75,-0.0317 -255.75,-0.0317 -2.778,-2.07212 z m 34.7882,-79.11452 c -0.31923,-1.7875 -0.45212,-100.12893 -0.29531,-218.53651 0.2205,-166.50296 0.55792,-215.4551 1.48907,-216.03056 0.66217,-0.40923 98.76217,-0.7303 218,-0.71349 l 216.79604,0.0306 0.32226,2.81047 c 0.70401,6.13979 17.71438,5.68953 -214.9447,5.68953 l -212.87756,0 0,213.8 c 0,164.95556 -0.27415,214.07415 -1.2,215 -0.66,0.66 -2.43961,1.2 -3.95469,1.2 -2.32212,0 -2.84583,-0.51034 -3.33511,-3.25 z m 16.84213,-3.71731 c -2.90242,-1.20619 -3.90753,-3.06693 -2.23045,-4.12918 0.75797,-0.48009 12.46747,-0.87978 26.02113,-0.8882 21.53956,-0.0134 24.71945,-0.21451 25.25,-1.5971 0.33385,-0.86998 0.60699,-12.56998 0.60699,-26 0,-20.77774 0.21839,-24.41821 1.46482,-24.41821 3.04927,0 3.53518,3.88435 3.53518,28.25994 l 0,24.39143 -2.57856,2.42432 c -2.56441,2.41102 -2.70836,2.42548 -26.25,2.63692 -13.01929,0.11694 -24.63789,-0.18903 -25.81911,-0.67992 z m 73.64767,0.0933 c -3.62467,-0.50423 -4.5,-1.01504 -4.5,-2.626 0,-1.94008 0.75571,-2.008 25.22398,-2.26712 24.69168,-0.26148 25.24837,-0.3127 26.38019,-2.42751 0.81379,-1.52059 1.04361,-9.13671 0.77602,-25.71672 -0.35182,-21.79879 -0.24984,-23.5816 1.3669,-23.89525 3.11998,-0.60526 3.75291,4.17026 3.75291,28.31594 0,23.26698 -0.0116,23.39259 -2.41162,26.1849 l -2.41163,2.80576 -21.83837,0.126 c -12.01111,0.0693 -23.86338,-0.1557 -26.33838,-0.5 z m 72.5,-0.006 c -4.12683,-0.51132 -5,-0.96878 -5,-2.61951 0,-1.93841 0.75442,-2.00811 24.5,-2.26327 13.475,-0.1448 25.05474,-0.4652 25.73275,-0.712 0.92282,-0.33591 1.29994,-6.80306 1.5,-25.7235 0.23683,-22.39774 0.45213,-25.31033 1.89142,-25.58709 0.8933,-0.17178 1.88403,0.36484 2.20162,1.19248 0.3176,0.82764 0.66131,12.81264 0.76381,26.63334 0.18208,24.55189 0.13671,25.17823 -1.97727,27.29428 -2.07467,2.07671 -3.03633,2.17067 -23.38798,2.28527 -11.67339,0.0657 -23.47435,-0.15927 -26.22435,-0.5 z m 68.85233,-0.0868 c -2.90242,-1.20619 -3.90753,-3.06693 -2.23045,-4.12918 0.75797,-0.48009 12.46748,-0.87978 26.02113,-0.8882 21.53956,-0.0134 24.71945,-0.21451 25.25,-1.5971 0.33385,-0.86998 0.60699,-12.56998 0.60699,-26 0,-20.77825 0.21839,-24.41872 1.46482,-24.41872 3.04927,0 3.53518,3.88435 3.53518,28.25994 l 0,24.39143 -2.57856,2.42432 c -2.56441,2.41102 -2.70836,2.42548 -26.25,2.63692 -13.01929,0.11694 -24.63789,-0.18903 -25.81911,-0.67992 z m 73.64767,0.0928 c -3.62467,-0.50423 -4.5,-1.01504 -4.5,-2.626 0,-1.94008 0.75571,-2.008 25.22398,-2.26712 24.69168,-0.26148 25.24837,-0.3127 26.38019,-2.42751 0.81379,-1.52059 1.04361,-9.13671 0.77602,-25.71672 -0.35182,-21.79879 -0.24984,-23.5816 1.3669,-23.89525 3.11998,-0.60526 3.75291,4.17026 3.75291,28.31594 0,23.26698 -0.0116,23.39259 -2.41162,26.1849 l -2.41163,2.80576 -21.83837,0.126 c -12.01111,0.0693 -23.86338,-0.1557 -26.33838,-0.5 z m 72.5,-0.006 c -4.12683,-0.51132 -5,-0.96878 -5,-2.61951 0,-1.93841 0.75442,-2.00811 24.5,-2.26327 13.475,-0.1448 25.05474,-0.4652 25.73275,-0.712 0.92282,-0.33591 1.29994,-6.80306 1.5,-25.7235 0.23952,-22.65264 0.43994,-25.30798 1.93181,-25.59487 0.95456,-0.18356 1.92619,0.5042 2.27792,1.61242 0.33735,1.06288 0.66319,13.05108 0.72409,26.64044 0.10788,24.07305 0.0551,24.7636 -2.05357,26.87436 -2.07552,2.07755 -3.03497,2.17132 -23.38865,2.28593 -11.67339,0.0657 -23.47435,-0.15927 -26.22435,-0.5 z m -361.14767,-72.0873 c -2.90242,-1.20619 -3.90753,-3.06693 -2.23044,-4.12918 0.75796,-0.48009 12.46746,-0.87978 26.02112,-0.8882 21.53956,-0.0134 24.71945,-0.21451 25.25,-1.5971 0.33385,-0.86998 0.60699,-12.56998 0.60699,-26 0,-20.77774 0.21839,-24.41821 1.46482,-24.41821 3.04927,0 3.53518,3.88435 3.53518,28.25994 l 0,24.39143 -2.57856,2.42432 c -2.56441,2.41102 -2.70836,2.42548 -26.25,2.63692 -13.01929,0.11694 -24.63789,-0.18903 -25.81911,-0.67992 z m 71.64767,0.0976 c -1.56841,-0.45202 -2.5,-1.44897 -2.5,-2.67541 0,-1.88116 0.95167,-1.965 25.22398,-2.22204 24.69168,-0.26148 25.24837,-0.3127 26.38019,-2.42751 0.81379,-1.52059 1.04361,-9.13671 0.77602,-25.71672 -0.35182,-21.79879 -0.24984,-23.5816 1.3669,-23.89525 3.11998,-0.60526 3.75291,4.17026 3.75291,28.31594 0,23.26749 -0.0115,23.39253 -2.41179,26.1849 l -2.41179,2.80576 -23.83821,0.17541 c -13.11102,0.0965 -24.96321,-0.14881 -26.33821,-0.54508 z m 73.5,0.004 c -3.12203,-0.49476 -4,-1.07288 -4,-2.6339 0,-1.93841 0.75442,-2.00811 24.5,-2.26327 13.475,-0.1448 25.05474,-0.4652 25.73275,-0.712 0.92282,-0.33591 1.29994,-6.80306 1.5,-25.7235 0.23683,-22.39774 0.45213,-25.31033 1.89142,-25.58709 0.8933,-0.17178 1.88403,0.36484 2.20162,1.19248 0.3176,0.82764 0.66131,12.81264 0.76381,26.63334 0.18208,24.55228 0.13674,25.17819 -1.97738,27.29428 -2.08032,2.08227 -3.02042,2.17092 -24.38797,2.29966 -12.22334,0.0736 -24.02425,-0.15136 -26.22425,-0.5 z m 69.85233,-0.10121 c -2.90242,-1.20619 -3.90753,-3.06693 -2.23045,-4.12918 0.75797,-0.48009 12.46748,-0.87978 26.02113,-0.8882 21.53956,-0.0134 24.71945,-0.21451 25.25,-1.5971 0.33385,-0.86998 0.60699,-12.56998 0.60699,-26 0,-20.77817 0.21839,-24.41864 1.46482,-24.41864 3.04927,0 3.53518,3.88435 3.53518,28.25994 l 0,24.39143 -2.57856,2.42432 c -2.56441,2.41102 -2.70836,2.42548 -26.25,2.63692 -13.01929,0.11694 -24.63789,-0.18903 -25.81911,-0.67992 z m 71.64767,0.0972 c -1.56841,-0.45202 -2.5,-1.44897 -2.5,-2.67541 0,-1.88116 0.95167,-1.965 25.22398,-2.22204 24.69168,-0.26148 25.24837,-0.3127 26.38019,-2.42751 0.81379,-1.52059 1.04361,-9.13671 0.77602,-25.71672 -0.35182,-21.79879 -0.24984,-23.5816 1.3669,-23.89525 3.11998,-0.60526 3.75291,4.17026 3.75291,28.31594 0,23.26749 -0.0115,23.39253 -2.41179,26.1849 l -2.41179,2.80576 -23.83821,0.17541 c -13.11102,0.0965 -24.96321,-0.14881 -26.33821,-0.54508 z m 73.5,0.004 c -3.12203,-0.49476 -4,-1.07288 -4,-2.6339 0,-1.93841 0.75442,-2.00811 24.5,-2.26327 13.475,-0.1448 25.05474,-0.4652 25.73275,-0.712 0.92282,-0.33591 1.29994,-6.80306 1.5,-25.7235 0.23683,-22.39774 0.45213,-25.31033 1.89142,-25.58709 0.8933,-0.17178 1.88628,0.37071 2.20663,1.20553 0.32035,0.83483 0.66209,12.8218 0.75942,26.63772 0.17276,24.52171 0.12555,25.17133 -1.98238,27.28124 -2.07474,2.07669 -3.03008,2.16662 -24.38359,2.29527 -12.22334,0.0736 -24.02425,-0.15136 -26.22425,-0.5 z M 182.13804,418.10916 c -2.90242,-1.20619 -3.90753,-3.06693 -2.23044,-4.12918 0.75796,-0.48009 12.46746,-0.87978 26.02112,-0.8882 21.53956,-0.0134 24.71945,-0.21451 25.25,-1.5971 0.33385,-0.86998 0.60699,-12.56998 0.60699,-26 0,-20.77774 0.21839,-24.41821 1.46482,-24.41821 3.04927,0 3.53518,3.88435 3.53518,28.25994 l 0,24.39143 -2.57856,2.42432 c -2.56441,2.41102 -2.70836,2.42548 -26.25,2.63692 -13.01929,0.11694 -24.63789,-0.18903 -25.81911,-0.67992 z m 73.64767,0.0933 c -3.62467,-0.50423 -4.5,-1.01504 -4.5,-2.626 0,-1.94008 0.75571,-2.008 25.22398,-2.26712 24.69168,-0.26148 25.24837,-0.3127 26.38019,-2.42751 0.81379,-1.52059 1.04361,-9.13671 0.77602,-25.71672 -0.35182,-21.79879 -0.24984,-23.5816 1.3669,-23.89525 3.11998,-0.60526 3.75291,4.17026 3.75291,28.31594 0,23.26698 -0.0116,23.39259 -2.41162,26.1849 l -2.41163,2.80576 -21.83837,0.126 c -12.01111,0.0693 -23.86338,-0.1557 -26.33838,-0.5 z m 72.5,-0.006 c -4.12683,-0.51132 -5,-0.96878 -5,-2.61951 0,-1.93841 0.75442,-2.00811 24.5,-2.26327 13.475,-0.1448 25.05474,-0.4652 25.73275,-0.712 0.92282,-0.33591 1.29994,-6.80306 1.5,-25.7235 0.23683,-22.39774 0.45213,-25.31033 1.89142,-25.58709 0.8933,-0.17178 1.88403,0.36484 2.20162,1.19248 0.3176,0.82764 0.66131,12.81264 0.76381,26.63334 0.18208,24.55189 0.13671,25.17823 -1.97727,27.29428 -2.07467,2.07671 -3.03633,2.17067 -23.38798,2.28527 -11.67339,0.0657 -23.47435,-0.15927 -26.22435,-0.5 z m 68.85233,-0.0868 c -2.90242,-1.20619 -3.90753,-3.06693 -2.23045,-4.12918 0.75797,-0.48009 12.46748,-0.87978 26.02113,-0.8882 21.53956,-0.0134 24.71945,-0.21451 25.25,-1.5971 0.33385,-0.86998 0.60699,-12.56998 0.60699,-26 0,-20.77825 0.21839,-24.41872 1.46482,-24.41872 3.04927,0 3.53518,3.88435 3.53518,28.25994 l 0,24.39143 -2.57856,2.42432 c -2.56441,2.41102 -2.70836,2.42548 -26.25,2.63692 -13.01929,0.11694 -24.63789,-0.18903 -25.81911,-0.67992 z m 73.64767,0.0928 c -3.62467,-0.50423 -4.5,-1.01504 -4.5,-2.626 0,-1.94008 0.75571,-2.008 25.22398,-2.26712 24.69168,-0.26148 25.24837,-0.3127 26.38019,-2.42751 0.81379,-1.52059 1.04361,-9.13671 0.77602,-25.71672 -0.35182,-21.79879 -0.24984,-23.5816 1.3669,-23.89525 3.11998,-0.60526 3.75291,4.17026 3.75291,28.31594 0,23.26698 -0.0116,23.39259 -2.41162,26.1849 l -2.41163,2.80576 -21.83837,0.126 c -12.01111,0.0693 -23.86338,-0.1557 -26.33838,-0.5 z m 72.5,-0.006 c -4.12683,-0.51132 -5,-0.96878 -5,-2.61951 0,-1.93841 0.75442,-2.00811 24.5,-2.26327 13.475,-0.1448 25.0625,-0.46818 25.75,-0.71862 0.95464,-0.34824 1.25,-6.3779 1.25,-25.5186 0,-22.05775 0.19195,-25.13643 1.60092,-25.6771 0.88051,-0.33788 1.99862,0.0137 2.48469,0.78138 0.48607,0.76765 0.89066,12.91348 0.89908,26.99073 0.0148,24.75065 -0.0541,25.65786 -2.0873,27.5 -1.91854,1.73821 -3.95403,1.91545 -23.25,2.0245 -11.63107,0.0657 -23.39739,-0.15927 -26.14739,-0.5 z m -361.14767,-72.0873 c -2.90242,-1.20619 -3.90753,-3.06693 -2.23044,-4.12918 0.75796,-0.48009 12.46746,-0.87978 26.02112,-0.8882 21.53956,-0.0134 24.71945,-0.21451 25.25,-1.5971 0.33385,-0.86998 0.60699,-12.56998 0.60699,-26 0,-20.77774 0.21839,-24.41821 1.46482,-24.41821 3.04927,0 3.53518,3.88435 3.53518,28.25994 l 0,24.39143 -2.57856,2.42432 c -2.56441,2.41102 -2.70836,2.42548 -26.25,2.63692 -13.01929,0.11694 -24.63789,-0.18903 -25.81911,-0.67992 z m 73.64767,0.0933 c -3.62467,-0.50423 -4.5,-1.01504 -4.5,-2.626 0,-1.94008 0.75571,-2.008 25.22398,-2.26712 24.69168,-0.26148 25.24837,-0.3127 26.38019,-2.42751 0.81379,-1.52059 1.04361,-9.13671 0.77602,-25.71672 -0.35182,-21.79879 -0.24984,-23.5816 1.3669,-23.89525 3.11998,-0.60526 3.75291,4.17026 3.75291,28.31594 0,23.26698 -0.0116,23.39259 -2.41162,26.1849 l -2.41163,2.80576 -21.83837,0.126 c -12.01111,0.0693 -23.86338,-0.1557 -26.33838,-0.5 z m 72.5,-0.006 c -4.12683,-0.51132 -5,-0.96878 -5,-2.61951 0,-1.93841 0.75442,-2.00811 24.5,-2.26327 13.475,-0.1448 25.05474,-0.4652 25.73275,-0.712 0.92282,-0.33591 1.29994,-6.80306 1.5,-25.7235 0.23683,-22.39774 0.45213,-25.31033 1.89142,-25.58709 0.8933,-0.17178 1.88403,0.36484 2.20162,1.19248 0.3176,0.82764 0.66131,12.81264 0.76381,26.63334 0.18208,24.55189 0.13671,25.17823 -1.97727,27.29428 -2.07467,2.07671 -3.03633,2.17067 -23.38798,2.28527 -11.67339,0.0657 -23.47435,-0.15927 -26.22435,-0.5 z m 68.85233,-0.0868 c -2.90242,-1.20619 -3.90753,-3.06693 -2.23045,-4.12918 0.75797,-0.48009 12.46748,-0.87978 26.02113,-0.8882 21.53956,-0.0134 24.71945,-0.21451 25.25,-1.5971 0.33385,-0.86998 0.60699,-12.56998 0.60699,-26 0,-20.77825 0.21839,-24.41872 1.46482,-24.41872 3.04927,0 3.53518,3.88435 3.53518,28.25994 l 0,24.39143 -2.57856,2.42432 c -2.56441,2.41102 -2.70836,2.42548 -26.25,2.63692 -13.01929,0.11694 -24.63789,-0.18903 -25.81911,-0.67992 z m 73.64767,0.0928 c -3.62467,-0.50423 -4.5,-1.01504 -4.5,-2.626 0,-1.94008 0.75571,-2.008 25.22398,-2.26712 24.69168,-0.26148 25.24837,-0.3127 26.38019,-2.42751 0.81379,-1.52059 1.04361,-9.13671 0.77602,-25.71672 -0.35182,-21.79879 -0.24984,-23.5816 1.3669,-23.89525 3.11998,-0.60526 3.75291,4.17026 3.75291,28.31594 0,23.26698 -0.0116,23.39259 -2.41162,26.1849 l -2.41163,2.80576 -21.83837,0.126 c -12.01111,0.0693 -23.86338,-0.1557 -26.33838,-0.5 z m 72.5,-0.006 c -4.12683,-0.51132 -5,-0.96878 -5,-2.61951 0,-1.93841 0.75442,-2.00811 24.5,-2.26327 13.475,-0.1448 25.0625,-0.46818 25.75,-0.71862 0.95464,-0.34824 1.25,-6.3779 1.25,-25.5186 0,-22.05775 0.19195,-25.13643 1.60092,-25.6771 0.88051,-0.33788 1.99862,0.0137 2.48469,0.78138 0.48607,0.76765 0.89066,12.91348 0.89908,26.99073 0.0148,24.75065 -0.0541,25.65786 -2.0873,27.5 -1.91854,1.73821 -3.95403,1.91545 -23.25,2.0245 -11.63107,0.0657 -23.39739,-0.15927 -26.14739,-0.5 z m -361.14767,-72.0873 c -2.90242,-1.20619 -3.90753,-3.06693 -2.23044,-4.12918 0.75796,-0.48009 12.46746,-0.87978 26.02112,-0.8882 21.53956,-0.0134 24.71945,-0.21451 25.25,-1.5971 0.33385,-0.86998 0.60699,-12.56998 0.60699,-26 0,-20.77774 0.21839,-24.41821 1.46482,-24.41821 3.04927,0 3.53518,3.88435 3.53518,28.25994 l 0,24.39143 -2.57856,2.42432 c -2.56441,2.41102 -2.70836,2.42548 -26.25,2.63692 -13.01929,0.11694 -24.63789,-0.18903 -25.81911,-0.67992 z m 73.64767,0.0933 c -3.62467,-0.50423 -4.5,-1.01504 -4.5,-2.626 0,-1.94008 0.75571,-2.008 25.22398,-2.26712 24.69168,-0.26148 25.24837,-0.3127 26.38019,-2.42751 0.81379,-1.52059 1.04361,-9.13671 0.77602,-25.71672 -0.35182,-21.79879 -0.24984,-23.5816 1.3669,-23.89525 3.11998,-0.60526 3.75291,4.17026 3.75291,28.31594 0,23.26698 -0.0116,23.39259 -2.41162,26.1849 l -2.41163,2.80576 -21.83837,0.126 c -12.01111,0.0693 -23.86338,-0.1557 -26.33838,-0.5 z m 72.5,-0.006 c -4.12683,-0.51132 -5,-0.96878 -5,-2.61951 0,-1.93841 0.75442,-2.00811 24.5,-2.26327 13.475,-0.1448 25.05474,-0.4652 25.73275,-0.712 0.92282,-0.33591 1.29994,-6.80306 1.5,-25.7235 0.23683,-22.39774 0.45213,-25.31033 1.89142,-25.58709 0.8933,-0.17178 1.88403,0.36484 2.20162,1.19248 0.3176,0.82764 0.66131,12.81264 0.76381,26.63334 0.18208,24.55189 0.13671,25.17823 -1.97727,27.29428 -2.07467,2.07671 -3.03633,2.17067 -23.38798,2.28527 -11.67339,0.0657 -23.47435,-0.15927 -26.22435,-0.5 z m 68.85233,-0.0868 c -2.90242,-1.20619 -3.90753,-3.06693 -2.23045,-4.12918 0.75797,-0.48009 12.46748,-0.87978 26.02113,-0.8882 21.53956,-0.0134 24.71945,-0.21451 25.25,-1.5971 0.33385,-0.86998 0.60699,-12.56998 0.60699,-26 0,-20.77825 0.21839,-24.41872 1.46482,-24.41872 3.04927,0 3.53518,3.88435 3.53518,28.25994 l 0,24.39143 -2.57856,2.42432 c -2.56441,2.41102 -2.70836,2.42548 -26.25,2.63692 -13.01929,0.11694 -24.63789,-0.18903 -25.81911,-0.67992 z m 73.64767,0.0928 c -3.62467,-0.50423 -4.5,-1.01504 -4.5,-2.626 0,-1.94008 0.75571,-2.008 25.22398,-2.26712 24.69168,-0.26148 25.24837,-0.3127 26.38019,-2.42751 0.81379,-1.52059 1.04361,-9.13671 0.77602,-25.71672 -0.35182,-21.79879 -0.24984,-23.5816 1.3669,-23.89525 3.11998,-0.60526 3.75291,4.17026 3.75291,28.31594 0,23.26698 -0.0116,23.39259 -2.41162,26.1849 l -2.41163,2.80576 -21.83837,0.126 c -12.01111,0.0693 -23.86338,-0.1557 -26.33838,-0.5 z m 72.5,-0.006 c -4.12683,-0.51132 -5,-0.96878 -5,-2.61951 0,-1.93841 0.75442,-2.00811 24.5,-2.26327 13.475,-0.1448 25.0625,-0.46818 25.75,-0.71862 0.95464,-0.34824 1.25,-6.3779 1.25,-25.5186 0,-22.05775 0.19195,-25.13643 1.60092,-25.6771 0.88051,-0.33788 1.99862,0.0137 2.48469,0.78138 0.48607,0.76765 0.89066,12.91348 0.89908,26.99073 0.0148,24.75065 -0.0541,25.65786 -2.0873,27.5 -1.91854,1.73821 -3.95403,1.91545 -23.25,2.0245 -11.63107,0.0657 -23.39739,-0.15927 -26.14739,-0.5 z m -361.14767,-72.0873 c -2.90242,-1.20619 -3.90753,-3.06693 -2.23044,-4.12918 0.75796,-0.48009 12.46746,-0.87978 26.02112,-0.8882 21.53956,-0.0134 24.71945,-0.21451 25.25,-1.5971 0.33385,-0.86998 0.60699,-12.56998 0.60699,-26 0,-20.77774 0.21839,-24.41821 1.46482,-24.41821 3.04927,0 3.53518,3.88435 3.53518,28.25994 l 0,24.39143 -2.57856,2.42432 c -2.56441,2.41102 -2.70836,2.42548 -26.25,2.63692 -13.01929,0.11694 -24.63789,-0.18903 -25.81911,-0.67992 z m 73.64767,0.0933 c -3.62467,-0.50423 -4.5,-1.01504 -4.5,-2.626 0,-1.94008 0.75571,-2.008 25.22398,-2.26712 24.69168,-0.26148 25.24837,-0.3127 26.38019,-2.42751 0.81379,-1.52059 1.04361,-9.13671 0.77602,-25.71672 -0.35182,-21.79879 -0.24984,-23.58161 1.3669,-23.89525 3.11998,-0.60527 3.75291,4.17025 3.75291,28.31594 0,23.26698 -0.0116,23.39259 -2.41162,26.1849 l -2.41163,2.80576 -21.83837,0.126 c -12.01111,0.0693 -23.86338,-0.1557 -26.33838,-0.5 z m 72.5,-0.006 c -4.12683,-0.51132 -5,-0.96878 -5,-2.61951 0,-1.93841 0.75442,-2.00811 24.5,-2.26327 13.475,-0.1448 25.05474,-0.4652 25.73275,-0.712 0.92282,-0.33591 1.29994,-6.80306 1.5,-25.7235 0.23683,-22.39774 0.45213,-25.31033 1.89142,-25.58709 0.8933,-0.17178 1.88403,0.36484 2.20162,1.19248 0.3176,0.82764 0.66131,12.81264 0.76381,26.63334 0.18208,24.55189 0.13671,25.17823 -1.97727,27.29428 -2.07467,2.07671 -3.03633,2.17067 -23.38798,2.28527 -11.67339,0.0657 -23.47435,-0.15927 -26.22435,-0.5 z m 68.85233,-0.0868 c -2.90242,-1.20619 -3.90753,-3.06693 -2.23045,-4.12918 0.75797,-0.48009 12.46748,-0.87978 26.02113,-0.8882 21.53956,-0.0134 24.71945,-0.21451 25.25,-1.5971 0.33385,-0.86998 0.60699,-12.56998 0.60699,-26 0,-20.77825 0.21839,-24.41872 1.46482,-24.41872 3.04927,0 3.53518,3.88435 3.53518,28.25994 l 0,24.39143 -2.57856,2.42432 c -2.56441,2.41102 -2.70836,2.42548 -26.25,2.63692 -13.01929,0.11694 -24.63789,-0.18903 -25.81911,-0.67992 z m 73.64767,0.0928 c -3.62467,-0.50423 -4.5,-1.01504 -4.5,-2.626 0,-1.94008 0.75571,-2.008 25.22398,-2.26712 24.69168,-0.26148 25.24837,-0.3127 26.38019,-2.42751 0.81379,-1.52059 1.04361,-9.13671 0.77602,-25.71672 -0.35182,-21.79879 -0.24984,-23.58161 1.3669,-23.89525 3.11998,-0.60527 3.75291,4.17025 3.75291,28.31594 0,23.26698 -0.0116,23.39259 -2.41162,26.1849 l -2.41163,2.80576 -21.83837,0.126 c -12.01111,0.0693 -23.86338,-0.1557 -26.33838,-0.5 z m 72.5,0.001 c -4.12426,-0.51737 -5,-0.97753 -5,-2.62723 0,-1.93841 0.75442,-2.00811 24.5,-2.26327 13.475,-0.1448 25.0625,-0.46818 25.75,-0.71862 0.95464,-0.34752 1.25,-6.37718 1.25,-25.51788 0,-22.05775 0.19195,-25.13643 1.60092,-25.6771 0.88051,-0.33789 1.99862,0.0137 2.48469,0.78138 0.48607,0.76765 0.89066,12.91347 0.89908,26.99073 0.0148,24.75122 -0.054,25.65782 -2.08744,27.5 -1.91803,1.73764 -3.96055,1.91617 -23.25,2.03222 -11.63099,0.07 -23.39725,-0.15502 -26.14725,-0.5 z M 262.07979,126.75039 c -10.0057,-3.66381 -9.68089,-3.67392 118.03804,-3.67392 109.41769,0 124.16066,-0.17906 127.43635,-1.54773 8.67833,-3.62604 12.17705,-9.98823 12.20957,-22.202271 0.0121,-4.5375 0.4231,-8.25 0.91338,-8.25 1.70468,0 4.10852,8.075875 4.09881,13.770241 -0.018,10.5426 -5.72736,18.89366 -15.06123,22.02989 -5.08087,1.70719 -242.95907,1.58596 -247.63492,-0.12621 z m 11.90592,-17.87392 c -1.34104,-1.34104 -1.60792,-9.609276 -0.37295,-11.554409 0.63238,-0.996021 23.54475,-1.202004 111.23469,-1 l 110.43826,0.254408 0.30988,5.469631 c 0.24351,4.29826 -0.0651,5.74384 -1.44113,6.75 -2.47953,1.81307 -218.35724,1.89187 -220.16875,0.0804 z"
         id="path2852" />
      <path
         style="fill:#a6a6a6"
         d="m 130.10187,643.82647 c -1.69189,-1.7875 -3.58017,-4.23292 -4.19617,-5.43426 -0.81871,-1.5967 -1.11999,-76.80902 -1.11999,-279.60212 l 0,-277.417855 2.2738,-3.374086 c 1.25058,-1.855748 3.79213,-4.397295 5.64788,-5.647883 l 3.37409,-2.273797 248.70207,0 248.70208,0 3.98095,2.883785 c 7.83501,5.675648 7.31913,-2.000729 7.31913,108.910356 0,89.34516 -0.15414,99.05103 -1.58179,99.59887 -2.59074,0.99416 -29.07502,0.68797 -31.85311,-0.36826 -5.65644,-2.15057 -2.43798,-3.02488 11.1849,-3.0384 7.5625,-0.008 14.76899,-0.2867 16.01443,-0.62041 l 2.26443,-0.60675 -0.26443,-97.79924 -0.26443,-97.799245 -2.34483,-2.495745 c -1.28966,-1.372661 -3.53966,-2.79388 -5,-3.158265 -1.46034,-0.364385 -3.36858,-1.305152 -4.24053,-2.090595 -1.36627,-1.230729 -35.52382,-1.392701 -247.17672,-1.172089 l -245.59136,0.255988 -2.82328,2.071085 c -1.5528,1.139097 -3.61008,3.614097 -4.57173,5.5 -1.65197,3.23972 -1.74853,18.531488 -1.75,277.143736 -0.002,272.76734 0.005,273.71852 2.0001,274.78606 1.10091,0.58919 2.64046,2.60014 3.42122,4.46877 2.96864,7.10496 -19.42599,6.53035 254.51169,6.53035 l 247.03389,0 3.26577,-2.91794 3.26578,-2.91794 -0.0327,-139.83206 c -0.018,-76.90763 -0.243,-140.73206 -0.5,-141.83206 -0.36937,-1.58091 0.10895,-2.0663 2.28271,-2.31642 l 2.74999,-0.31642 0,147.06642 0,147.06642 -255.80383,0 -255.80384,0 -3.07617,-3.25 z m 37.40802,-75.88448 c -1.62397,-0.90882 -1.72418,-13.56277 -1.72418,-217.71521 0,-167.25024 0.27405,-217.02436 1.2,-217.95031 0.92594,-0.92594 50.60697,-1.2 217.53138,-1.2 199.3606,0 216.38064,0.12833 216.95915,1.63592 0.34527,0.89976 0.16961,2.36226 -0.39036,3.25 -0.93098,1.47593 -19.30323,1.63567 -214.65915,1.86638 l -213.64102,0.2523 0,214.46251 c 0,204.4146 -0.0832,214.50705 -1.77582,215.41291 -1.12654,0.60291 -2.40623,0.5976 -3.5,-0.0145 z m 13.77582,-7.86552 c -0.40542,-0.65598 7.58211,-1 23.21848,-1 19.95543,0 24.19838,-0.25346 26.05901,-1.5567 2.1936,-1.53646 2.22251,-1.87461 2.22251,-26 0,-22.14214 0.57202,-27.60693 2.39301,-22.86151 0.33385,0.86998 0.60699,12.11998 0.60699,25 0,22.08488 -0.11387,23.53208 -2,25.41821 -1.89308,1.89308 -3.33333,2 -26.94098,2 -15.54864,0 -25.17373,-0.37658 -25.55902,-1 z m 72,0 c -0.40548,-0.65608 7.65628,-1 23.44098,-1 22.72569,0 24.16986,-0.11084 26.05902,-2 1.88889,-1.88889 2,-3.33333 2,-26 0,-15.33333 0.36111,-24 1,-24 0.64045,0 1,9.14286 1,25.42857 0,21.78355 -0.22525,25.65383 -1.57143,27 -1.34432,1.34432 -5.16563,1.57143 -26.44098,1.57143 -15.50102,0 -25.10237,-0.37671 -25.48759,-1 z m 72,0 c -0.40543,-0.656 7.59257,-1 23.24985,-1 19.02309,0 24.26191,-0.28783 25.80902,-1.41799 1.81551,-1.32622 1.96054,-3.01062 2.24099,-26.0282 0.18537,-15.21324 0.66266,-24.38599 1.25,-24.02299 0.55884,0.34537 0.95014,10.79511 0.95014,25.37321 0,22.74228 -0.15079,24.92246 -1.82874,26.44098 -1.59739,1.44562 -4.94236,1.65499 -26.44098,1.65499 -15.32948,0 -24.84534,-0.37716 -25.23028,-1 z m 71,0 c -0.40542,-0.65598 7.58211,-1 23.21848,-1 19.95543,0 24.19838,-0.25346 26.05901,-1.5567 2.1936,-1.53646 2.22251,-1.87461 2.22251,-26 0,-22.14214 0.57202,-27.60693 2.39301,-22.86151 0.33385,0.86998 0.60699,12.11998 0.60699,25 0,22.08488 -0.11387,23.53208 -2,25.41821 -1.89308,1.89308 -3.33333,2 -26.94098,2 -15.54864,0 -25.17373,-0.37658 -25.55902,-1 z m 72,0 c -0.40548,-0.65608 7.65628,-1 23.44098,-1 22.72569,0 24.16986,-0.11084 26.05902,-2 1.88889,-1.88889 2,-3.33333 2,-26 0,-15.33333 0.36111,-24 1,-24 0.64045,0 1,9.14286 1,25.42857 0,21.78355 -0.22525,25.65383 -1.57143,27 -1.34432,1.34432 -5.16563,1.57143 -26.44098,1.57143 -15.50102,0 -25.10237,-0.37671 -25.48759,-1 z m 72,0 c -0.40543,-0.656 7.59257,-1 23.24985,-1 19.02309,0 24.26191,-0.28783 25.80902,-1.41799 1.81551,-1.32622 1.96054,-3.01062 2.24099,-26.0282 0.18537,-15.21324 0.66266,-24.38599 1.25,-24.02299 0.55884,0.34537 0.95014,10.79511 0.95014,25.37321 0,22.74228 -0.15079,24.92246 -1.82874,26.44098 -1.59739,1.44562 -4.94236,1.65499 -26.44098,1.65499 -15.32948,0 -24.84534,-0.37716 -25.23028,-1 z m -359,-72 c -0.40542,-0.65598 7.58211,-1 23.21848,-1 19.95543,0 24.19838,-0.25346 26.05901,-1.5567 2.1936,-1.53646 2.22251,-1.87461 2.22251,-26 0,-22.14214 0.57202,-27.60693 2.39301,-22.86151 0.33385,0.86998 0.60699,12.11998 0.60699,25 0,22.08488 -0.11387,23.53208 -2,25.41821 -1.89308,1.89308 -3.33333,2 -26.94098,2 -15.54864,0 -25.17373,-0.37658 -25.55902,-1 z m 72,0 c -0.40548,-0.65608 7.65628,-1 23.44098,-1 22.72569,0 24.16986,-0.11084 26.05902,-2 1.88889,-1.88889 2,-3.33333 2,-26 0,-15.33333 0.36111,-24 1,-24 0.64045,0 1,9.14286 1,25.42857 0,21.78355 -0.22525,25.65383 -1.57143,27 -1.34432,1.34432 -5.16563,1.57143 -26.44098,1.57143 -15.50102,0 -25.10237,-0.37671 -25.48759,-1 z m 72,0 c -0.40543,-0.656 7.59257,-1 23.24985,-1 19.02309,0 24.26191,-0.28783 25.80902,-1.41799 1.81551,-1.32622 1.96054,-3.01062 2.24099,-26.0282 0.18537,-15.21324 0.66266,-24.38599 1.25,-24.02299 0.55884,0.34537 0.95014,10.79511 0.95014,25.37321 0,22.74228 -0.15079,24.92246 -1.82874,26.44098 -1.59739,1.44562 -4.94236,1.65499 -26.44098,1.65499 -15.32948,0 -24.84534,-0.37716 -25.23028,-1 z m 71,0 c -0.40542,-0.65598 7.58211,-1 23.21848,-1 19.95543,0 24.19838,-0.25346 26.05901,-1.5567 2.1936,-1.53646 2.22251,-1.87461 2.22251,-26 0,-22.14214 0.57202,-27.60693 2.39301,-22.86151 0.33385,0.86998 0.60699,12.11998 0.60699,25 0,22.08488 -0.11387,23.53208 -2,25.41821 -1.89308,1.89308 -3.33333,2 -26.94098,2 -15.54864,0 -25.17373,-0.37658 -25.55902,-1 z m 72,0 c -0.40548,-0.65608 7.65628,-1 23.44098,-1 22.72569,0 24.16986,-0.11084 26.05902,-2 1.88889,-1.88889 2,-3.33333 2,-26 0,-15.33333 0.36111,-24 1,-24 0.64045,0 1,9.14286 1,25.42857 0,21.78355 -0.22525,25.65383 -1.57143,27 -1.34432,1.34432 -5.16563,1.57143 -26.44098,1.57143 -15.50102,0 -25.10237,-0.37671 -25.48759,-1 z m 72,0 c -0.40543,-0.656 7.59257,-1 23.24985,-1 19.02309,0 24.26191,-0.28783 25.80902,-1.41799 1.81551,-1.32622 1.96054,-3.01062 2.24099,-26.0282 0.18537,-15.21324 0.66266,-24.38599 1.25,-24.02299 0.55884,0.34537 0.95014,10.79511 0.95014,25.37321 0,22.74228 -0.15079,24.92246 -1.82874,26.44098 -1.59739,1.44562 -4.94236,1.65499 -26.44098,1.65499 -15.32948,0 -24.84534,-0.37716 -25.23028,-1 z m -359,-72 c -0.40542,-0.65598 7.58211,-1 23.21848,-1 19.95543,0 24.19838,-0.25346 26.05901,-1.5567 2.1936,-1.53646 2.22251,-1.87461 2.22251,-26 0,-22.14214 0.57202,-27.60693 2.39301,-22.86151 0.33385,0.86998 0.60699,12.11998 0.60699,25 0,22.08488 -0.11387,23.53208 -2,25.41821 -1.89308,1.89308 -3.33333,2 -26.94098,2 -15.54864,0 -25.17373,-0.37658 -25.55902,-1 z m 72,0 c -0.40548,-0.65608 7.65628,-1 23.44098,-1 22.72569,0 24.16986,-0.11084 26.05902,-2 1.88889,-1.88889 2,-3.33333 2,-26 0,-15.33333 0.36111,-24 1,-24 0.64045,0 1,9.14286 1,25.42857 0,21.78355 -0.22525,25.65383 -1.57143,27 -1.34432,1.34432 -5.16563,1.57143 -26.44098,1.57143 -15.50102,0 -25.10237,-0.37671 -25.48759,-1 z m 72,0 c -0.40543,-0.656 7.59257,-1 23.24985,-1 19.02309,0 24.26191,-0.28783 25.80902,-1.41799 1.81551,-1.32622 1.96054,-3.01062 2.24099,-26.0282 0.18537,-15.21324 0.66266,-24.38599 1.25,-24.02299 0.55884,0.34537 0.95014,10.79511 0.95014,25.37321 0,22.74228 -0.15079,24.92246 -1.82874,26.44098 -1.59739,1.44562 -4.94236,1.65499 -26.44098,1.65499 -15.32948,0 -24.84534,-0.37716 -25.23028,-1 z m 71,0 c -0.40542,-0.65598 7.58211,-1 23.21848,-1 19.95543,0 24.19838,-0.25346 26.05901,-1.5567 2.1936,-1.53646 2.22251,-1.87461 2.22251,-26 0,-22.14214 0.57202,-27.60693 2.39301,-22.86151 0.33385,0.86998 0.60699,12.11998 0.60699,25 0,22.08488 -0.11387,23.53208 -2,25.41821 -1.89308,1.89308 -3.33333,2 -26.94098,2 -15.54864,0 -25.17373,-0.37658 -25.55902,-1 z m 72,0 c -0.40548,-0.65608 7.65628,-1 23.44098,-1 22.72569,0 24.16986,-0.11084 26.05902,-2 1.88889,-1.88889 2,-3.33333 2,-26 0,-15.33333 0.36111,-24 1,-24 0.64045,0 1,9.14286 1,25.42857 0,21.78355 -0.22525,25.65383 -1.57143,27 -1.34432,1.34432 -5.16563,1.57143 -26.44098,1.57143 -15.50102,0 -25.10237,-0.37671 -25.48759,-1 z m 72,0 c -0.40543,-0.656 7.59257,-1 23.24985,-1 19.02309,0 24.26191,-0.28783 25.80902,-1.41799 1.81551,-1.32622 1.96054,-3.01062 2.24099,-26.0282 0.18537,-15.21324 0.66266,-24.38599 1.25,-24.02299 0.55884,0.34537 0.95014,10.79511 0.95014,25.37321 0,22.74228 -0.15079,24.92246 -1.82874,26.44098 -1.59739,1.44562 -4.94236,1.65499 -26.44098,1.65499 -15.32948,0 -24.84534,-0.37716 -25.23028,-1 z m -359,-72 c -0.40542,-0.65598 7.58211,-1 23.21848,-1 19.95543,0 24.19838,-0.25346 26.05901,-1.5567 2.1936,-1.53646 2.22251,-1.87461 2.22251,-26 0,-22.14214 0.57202,-27.60693 2.39301,-22.86151 0.33385,0.86998 0.60699,12.11998 0.60699,25 0,22.08488 -0.11387,23.53208 -2,25.41821 -1.89308,1.89308 -3.33333,2 -26.94098,2 -15.54864,0 -25.17373,-0.37658 -25.55902,-1 z m 72,0 c -0.40548,-0.65608 7.65628,-1 23.44098,-1 22.72569,0 24.16986,-0.11084 26.05902,-2 1.88889,-1.88889 2,-3.33333 2,-26 0,-15.33333 0.36111,-24 1,-24 0.64045,0 1,9.14286 1,25.42857 0,21.78355 -0.22525,25.65383 -1.57143,27 -1.34432,1.34432 -5.16563,1.57143 -26.44098,1.57143 -15.50102,0 -25.10237,-0.37671 -25.48759,-1 z m 72,0 c -0.40543,-0.656 7.59257,-1 23.24985,-1 19.02309,0 24.26191,-0.28783 25.80902,-1.41799 1.81551,-1.32622 1.96054,-3.01062 2.24099,-26.0282 0.18537,-15.21324 0.66266,-24.38599 1.25,-24.02299 0.55884,0.34537 0.95014,10.79511 0.95014,25.37321 0,22.74228 -0.15079,24.92246 -1.82874,26.44098 -1.59739,1.44562 -4.94236,1.65499 -26.44098,1.65499 -15.32948,0 -24.84534,-0.37716 -25.23028,-1 z m 71,0 c -0.40542,-0.65598 7.58211,-1 23.21848,-1 19.95543,0 24.19838,-0.25346 26.05901,-1.5567 2.1936,-1.53646 2.22251,-1.87461 2.22251,-26 0,-22.14214 0.57202,-27.60693 2.39301,-22.86151 0.33385,0.86998 0.60699,12.11998 0.60699,25 0,22.08488 -0.11387,23.53208 -2,25.41821 -1.89308,1.89308 -3.33333,2 -26.94098,2 -15.54864,0 -25.17373,-0.37658 -25.55902,-1 z m 72,0 c -0.40548,-0.65608 7.65628,-1 23.44098,-1 22.72569,0 24.16986,-0.11084 26.05902,-2 1.88889,-1.88889 2,-3.33333 2,-26 0,-15.33333 0.36111,-24 1,-24 0.64045,0 1,9.14286 1,25.42857 0,21.78355 -0.22525,25.65383 -1.57143,27 -1.34432,1.34432 -5.16563,1.57143 -26.44098,1.57143 -15.50102,0 -25.10237,-0.37671 -25.48759,-1 z m 72,0 c -0.40543,-0.656 7.59257,-1 23.24985,-1 19.02309,0 24.26191,-0.28783 25.80902,-1.41799 1.81551,-1.32622 1.96054,-3.01062 2.24099,-26.0282 0.18537,-15.21324 0.66266,-24.38599 1.25,-24.02299 0.55884,0.34537 0.95014,10.79511 0.95014,25.37321 0,22.74228 -0.15079,24.92246 -1.82874,26.44098 -1.59739,1.44562 -4.94236,1.65499 -26.44098,1.65499 -15.32948,0 -24.84534,-0.37716 -25.23028,-1 z m -359,-72 c -0.40542,-0.65598 7.58211,-1 23.21848,-1 19.95543,0 24.19838,-0.25346 26.05901,-1.5567 2.1936,-1.53646 2.22251,-1.87461 2.22251,-26 0,-22.14214 0.57202,-27.60693 2.39301,-22.86151 0.33385,0.86998 0.60699,12.11998 0.60699,25 0,22.08488 -0.11387,23.53208 -2,25.41821 -1.89308,1.89308 -3.33333,2 -26.94098,2 -15.54864,0 -25.17373,-0.37658 -25.55902,-1 z m 72,0 c -0.40548,-0.65608 7.65628,-1 23.44098,-1 22.72569,0 24.16986,-0.11084 26.05902,-2 1.88889,-1.88889 2,-3.33333 2,-26 0,-15.33333 0.36111,-24 1,-24 0.64045,0 1,9.14286 1,25.42857 0,21.78355 -0.22525,25.65383 -1.57143,27 -1.34432,1.34432 -5.16563,1.57143 -26.44098,1.57143 -15.50102,0 -25.10237,-0.37671 -25.48759,-1 z m 72,0 c -0.40543,-0.656 7.59257,-1 23.24985,-1 19.02309,0 24.26191,-0.28783 25.80902,-1.41799 1.81551,-1.32622 1.96054,-3.01062 2.24099,-26.0282 0.18537,-15.21324 0.66266,-24.38599 1.25,-24.02299 0.55884,0.34537 0.95014,10.79511 0.95014,25.37321 0,22.74228 -0.15079,24.92246 -1.82874,26.44098 -1.59739,1.44562 -4.94236,1.65499 -26.44098,1.65499 -15.32948,0 -24.84534,-0.37716 -25.23028,-1 z m 71,0 c -0.40542,-0.65598 7.58211,-1 23.21848,-1 19.95543,0 24.19838,-0.25346 26.05901,-1.5567 2.1936,-1.53646 2.22251,-1.87461 2.22251,-26 0,-22.14214 0.57202,-27.60693 2.39301,-22.86151 0.33385,0.86998 0.60699,12.11998 0.60699,25 0,22.08488 -0.11387,23.53208 -2,25.41821 -1.89308,1.89308 -3.33333,2 -26.94098,2 -15.54864,0 -25.17373,-0.37658 -25.55902,-1 z m 72,0 c -0.40548,-0.65608 7.65628,-1 23.44098,-1 22.72569,0 24.16986,-0.11084 26.05902,-2 1.88889,-1.88889 2,-3.33333 2,-26 0,-15.33333 0.36111,-24 1,-24 0.64045,0 1,9.14286 1,25.42857 0,21.78355 -0.22525,25.65383 -1.57143,27 -1.34432,1.34432 -5.16563,1.57143 -26.44098,1.57143 -15.50102,0 -25.10237,-0.37671 -25.48759,-1 z m 72,0 c -0.40543,-0.656 7.59257,-1 23.24985,-1 19.02309,0 24.26191,-0.28783 25.80902,-1.41799 1.81551,-1.32622 1.96054,-3.01062 2.24099,-26.0282 0.18537,-15.21324 0.66266,-24.38599 1.25,-24.02299 0.55884,0.34537 0.95014,10.79511 0.95014,25.37321 0,22.74228 -0.15079,24.92246 -1.82874,26.44098 -1.59739,1.44562 -4.94236,1.65499 -26.44098,1.65499 -15.32948,0 -24.84534,-0.37716 -25.23028,-1 z m -359,-72 c -0.40542,-0.65598 7.58211,-1 23.21848,-1 19.95543,0 24.19838,-0.25346 26.05901,-1.5567 2.1936,-1.53646 2.22251,-1.87461 2.22251,-26 0,-22.14214 0.57202,-27.60693 2.39301,-22.86151 0.33385,0.86998 0.60699,12.11998 0.60699,25 0,22.08488 -0.11387,23.53208 -2,25.41821 -1.89308,1.89308 -3.33333,2 -26.94098,2 -15.54864,0 -25.17373,-0.37658 -25.55902,-1 z m 72,0 c -0.40548,-0.65608 7.65628,-1 23.44098,-1 22.72569,0 24.16986,-0.11084 26.05902,-2 1.88889,-1.88889 2,-3.33333 2,-26 0,-15.33333 0.36111,-24 1,-24 0.64045,0 1,9.14286 1,25.42857 0,21.78355 -0.22525,25.65383 -1.57143,27 -1.34432,1.34432 -5.16563,1.57143 -26.44098,1.57143 -15.50102,0 -25.10237,-0.37671 -25.48759,-1 z m 72,0 c -0.40543,-0.656 7.59257,-1 23.24985,-1 19.02309,0 24.26191,-0.28783 25.80902,-1.41799 1.81551,-1.32622 1.96054,-3.01062 2.24099,-26.0282 0.18537,-15.21325 0.66266,-24.38599 1.25,-24.02299 0.55884,0.34537 0.95014,10.79511 0.95014,25.37321 0,22.74228 -0.15079,24.92246 -1.82874,26.44098 -1.59739,1.44562 -4.94236,1.65499 -26.44098,1.65499 -15.32948,0 -24.84534,-0.37716 -25.23028,-1 z m 71,0 c -0.40542,-0.65598 7.58211,-1 23.21848,-1 19.95543,0 24.19838,-0.25346 26.05901,-1.5567 2.1936,-1.53646 2.22251,-1.87461 2.22251,-26 0,-22.14214 0.57202,-27.60693 2.39301,-22.86151 0.33385,0.86998 0.60699,12.11998 0.60699,25 0,22.08488 -0.11387,23.53208 -2,25.41821 -1.89308,1.89308 -3.33333,2 -26.94098,2 -15.54864,0 -25.17373,-0.37658 -25.55902,-1 z m 72,0 c -0.40548,-0.65608 7.65628,-1 23.44098,-1 22.72569,0 24.16986,-0.11084 26.05902,-2 1.88889,-1.88889 2,-3.33333 2,-26 0,-15.33333 0.36111,-24 1,-24 0.64045,0 1,9.14286 1,25.42857 0,21.78355 -0.22525,25.65383 -1.57143,27 -1.34432,1.34432 -5.16563,1.57143 -26.44098,1.57143 -15.50102,0 -25.10237,-0.37671 -25.48759,-1 z m 72,0 c -0.40543,-0.656 7.59257,-1 23.24985,-1 19.02309,0 24.26191,-0.28783 25.80902,-1.41799 1.81551,-1.32622 1.96054,-3.01062 2.24099,-26.0282 0.18537,-15.21325 0.66266,-24.38599 1.25,-24.02299 0.55884,0.34537 0.95014,10.79511 0.95014,25.37321 0,22.74228 -0.15079,24.92246 -1.82874,26.44098 -1.59739,1.44562 -4.94236,1.65499 -26.44098,1.65499 -15.32948,0 -24.84534,-0.37716 -25.23028,-1 z m -276.25,-73.66228 c -0.6875,-0.27741 -1.25,-0.91689 -1.25,-1.42105 0,-0.55049 48.14902,-0.91667 120.53212,-0.91667 106.70684,0 120.95857,-0.17814 124.25,-1.55305 8.2935,-3.46439 13.15925,-11.096 13.19592,-20.69695 0.0211,-5.531927 1.14638,-7.474103 2.41497,-4.168214 0.9697,2.526984 0.6927,10.569314 -0.51371,14.914914 -1.44848,5.21759 -8.165,11.93412 -13.3826,13.3826 -2.83231,0.78629 -38.95727,1.08817 -123.9967,1.03618 -66,-0.0404 -120.5625,-0.30035 -121.25,-0.57776 z m 10.15722,-18.71891 c -0.29337,-0.7645 -0.39251,-3.35398 -0.22031,-5.75441 l 0.31309,-4.364401 110.30003,-0.254391 110.30004,-0.254391 -0.30004,5.754393 -0.30003,5.75439 -109.77969,0.25441 c -92.96796,0.21544 -109.86138,0.0415 -110.31309,-1.1356 z"
         id="path2850" />
      <path
         style="fill:#8c8c8c"
         d="m 130.35736,643.32647 c -1.95487,-2.0625 -3.55821,-4.3125 -3.56298,-5 -0.005,-0.6875 -0.45867,-1.25 -1.00867,-1.25 -0.66486,0 -0.91682,-93.08454 -0.7518,-277.75 l 0.24819,-277.750001 0.2536,274.742651 0.2536,274.74264 2.07043,1.25736 c 1.13873,0.69154 2.68585,2.71 3.43803,4.48545 0.75218,1.77546 2.85718,4.13628 4.67777,5.24627 3.29646,2.00979 4.33328,2.01817 250.15589,2.02189 229.36886,0.003 247.04704,-0.11519 249.68934,-1.67604 6.48724,-3.8321 6.08796,6.37909 5.72148,-146.32022 -0.18282,-76.175 -0.54033,-139.34526 -0.79447,-140.37836 -0.33351,-1.35581 0.16389,-1.98001 1.78794,-2.24373 l 2.25,-0.36536 0,146.99372 0,146.99373 -255.43702,0 -255.43702,0 -3.55431,-3.75 z m 36.91896,-76.42609 c -0.27684,-0.72815 -0.38798,-98.74891 -0.24698,-217.82391 l 0.25637,-216.5 216.75,-0.25227 216.75,-0.25227 0,2.49998 0,2.49997 -214.25,0.2523 -214.25,0.25229 -0.5,214.98632 c -0.47414,203.86789 -0.59066,215.00378 -2.25302,215.32391 -0.96417,0.18567 -1.97953,-0.25817 -2.25637,-0.98632 z M 611.28134,280.06941 c -1.01291,-1.63893 1.27278,-1.95772 16.00437,-2.23214 l 14,-0.2608 0,-98.18448 0,-98.184473 -2.85958,-2.984619 c -1.57277,-1.64154 -4.04777,-3.281085 -5.5,-3.643434 -1.45223,-0.362349 -3.34985,-1.297853 -4.21694,-2.078898 -1.35128,-1.217187 -36.71281,-1.456374 -247.5,-1.674102 l -245.92348,-0.254021 248.26987,-0.247987 248.26987,-0.247987 3.73013,2.379212 c 2.05157,1.308566 4.85513,3.671066 6.23013,5.25 l 2.5,2.870788 0.26414,100.250001 0.26415,100.25 -16.45513,0 c -9.96833,0 -16.70048,-0.397 -17.07753,-1.00706 z M 509.19848,123.13849 c 5.29947,-2.772 7.42944,-4.83939 9.8515,-9.56202 2.50061,-4.8758 3.56126,-3.04193 1.16331,2.01137 -2.11627,4.4597 -6.99837,8.2915 -11.51109,9.03468 l -3.41649,0.56264 3.91277,-2.04667 z M 275.45238,108.4098 c -0.36667,-0.36666 -0.66667,-2.79352 -0.66667,-5.39301 0,-3.387316 0.44814,-4.89831 1.58179,-5.333332 0.86998,-0.333844 49.82998,-0.606989 108.8,-0.606989 82.05861,0 107.4998,0.28159 108.41821,1.2 1.55247,1.552466 1.55247,8.047531 0,9.600001 -0.91854,0.91854 -26.56296,1.2 -109.33333,1.2 -59.47334,0 -108.43334,-0.3 -108.8,-0.66667 z"
         id="path2848" />
      <path
         style="fill:#727272"
         d="m 133.78571,646.07647 c -0.825,-0.53316 -1.05,-0.96937 -0.5,-0.96937 0.55,0 1.675,0.43621 2.5,0.96937 0.825,0.53316 1.05,0.96937 0.5,0.96937 -0.55,0 -1.675,-0.43621 -2.5,-0.96937 z m 14,0 c 0,-0.66393 82,-1 244,-1 162,0 244,0.33607 244,1 0,0.66393 -82,1 -244,1 -162,0 -244,-0.33607 -244,-1 z m 494,0.0938 c -2.44265,-0.69058 -2.44987,-0.72016 -0.31458,-1.28981 1.37964,-0.36806 2.38201,-0.0707 2.71861,0.80647 0.29326,0.76422 0.43482,1.34463 0.31459,1.28981 -0.12024,-0.0548 -1.34362,-0.41774 -2.71862,-0.80647 z m 1.45325,-17.81282 c -0.86841,-10.42518 0.011,-274.07864 0.91723,-274.98485 0.34624,-0.34618 0.62952,63.34554 0.62952,141.5372 0,78.19167 -0.1846,142.16667 -0.41023,142.16667 -0.22563,0 -0.73706,-3.92354 -1.13652,-8.71897 z m -515.95325,6.71902 c -0.33992,-0.55 -0.14148,-1 0.44098,-1 0.58246,0 1.05902,0.45 1.05902,1 0,0.55 -0.19844,1 -0.44098,1 -0.24254,0 -0.7191,-0.45 -1.05902,-1 z m 40.5,-285.00227 0,-217.00228 216.25,0.25228 c 143.33182,0.1672 216.25,0.58946 216.25,1.25227 0,0.66275 -71.96831,1.08509 -213.40032,1.25231 -155.72154,0.18411 -213.76512,0.55506 -214.75,1.37244 -1.12523,0.93386 -1.34968,36.77138 -1.34968,215.49769 0,189.89116 -0.17133,214.37756 -1.5,214.37756 -1.32873,0 -1.5,-24.77803 -1.5,-217.00227 z m 461,-69.99773 -14.5,-0.5839 13,-0.22336 c 7.15,-0.12285 13.675,-0.65045 14.5,-1.17244 1.32075,-0.83566 1.4538,-12.42562 1.11344,-96.98469 -0.27505,-68.3322 -0.075,-96.035611 0.69332,-96.035611 0.76527,0 1.10437,28.551831 1.1639,98.000001 0.0462,53.9 -0.26579,97.90638 -0.69332,97.79195 -0.42754,-0.11443 -7.30234,-0.4708 -15.27734,-0.79195 z m -352.80497,-176.74555 0.30497,-4.754451 108.5,0 108.5,0 0,4.500001 0,4.5 -108.80497,0.25445 -108.80498,0.25445 0.30498,-4.75445 z M 137.05654,70.472302 c 0.33229,-0.332291 1.19479,-0.367818 1.91667,-0.07895 0.79773,0.319227 0.56078,0.556183 -0.60417,0.604167 -1.05416,0.04342 -1.64479,-0.192928 -1.3125,-0.525219 z"
         id="path2846" />
    </g>
    <path
       style="fill:#cccccc;fill-opacity:1;fill-rule:evenodd;stroke:none"
       d="M -1364.1562 -239.25 C -1373.7523 -239.25 -1381.4688 -232.52005 -1381.4688 -224.1875 L -1381.4688 323.53125 C -1381.4688 331.8638 -1373.7523 338.5625 -1364.1562 338.5625 L -878.1875 338.5625 C -868.59143 338.5625 -860.875 331.8638 -860.875 323.53125 L -860.875 44.15625 L -903.4375 44.15625 L -903.4375 260.9375 L -1338.25 260.9375 L -1338.25 -176.21875 L -903.4375 -176.21875 L -903.4375 -27.28125 L -860.875 -27.28125 L -860.875 -224.1875 C -860.875 -232.52005 -868.59143 -239.25 -878.1875 -239.25 L -1364.1562 -239.25 z "
       id="rect3638"
       inkscape:export-filename="C:\Users\phil\Pictures\1 - rush hour\1.png"
       inkscape:export-xdpi="150"
       inkscape:export-ydpi="150" />
    <rect
       style="fill:#b3b3b3;fill-opacity:1;fill-rule:evenodd;stroke:none"
       id="rect3743"
       width="272.85745"
       height="42.857159"
       x="-1259.2859"
       y="-29.066389"
       ry="20.357151"
       inkscape:export-filename="C:\Users\phil\Pictures\1 - rush hour\1.png"
       inkscape:export-xdpi="150"
       inkscape:export-ydpi="150" />
    <path
       style="fill:#cccccc;fill-opacity:1;fill-rule:evenodd;stroke:none"
       d="m -1360.0045,-776.92857 0,58.9375 59.2188,0 0,-58.9375 -59.2188,0 z m 71.8438,0 0,58.9375 59.0938,0 0,-58.9375 -59.0938,0 z m 71.7188,0 0,58.9375 58.4687,0 0,-58.9375 -58.4687,0 z m 71.0937,0 0,58.9375 59.5937,0 0,-58.9375 -59.5937,0 z m 72.2187,0 0,58.9375 58.9688,0 0,-58.9375 -58.9688,0 z m 71.5938,0 0,58.9375 58.93749,0 0,-58.9375 -58.93749,0 z m -358.4688,71.5625 0,59.09375 59.2188,0 0,-59.09375 -59.2188,0 z m 71.8438,0 0,59.09375 59.0938,0 0,-59.09375 -59.0938,0 z m 71.7188,0 0,59.09375 58.4687,0 0,-59.09375 -58.4687,0 z m 71.0937,0 0,59.09375 59.5937,0 0,-59.09375 -59.5937,0 z m 72.2187,0 0,59.09375 58.9688,0 0,-59.09375 -58.9688,0 z m 71.5938,0 0,59.09375 58.93749,0 0,-59.09375 -58.93749,0 z m -358.4688,71.75 0,59.59375 59.2188,0 0,-59.59375 -59.2188,0 z m 71.8438,0 0,59.59375 59.0938,0 0,-59.59375 -59.0938,0 z m 71.7188,0 0,59.59375 58.4687,0 0,-59.59375 -58.4687,0 z m 71.0937,0 0,59.59375 59.5937,0 0,-59.59375 -59.5937,0 z m 72.2187,0 0,59.59375 58.9688,0 0,-59.59375 -58.9688,0 z m 71.5938,0 0,59.59375 58.93749,0 0,-59.59375 -58.93749,0 z m -358.4688,72.21875 0,59.84375 59.2188,0 0,-59.84375 -59.2188,0 z m 71.8438,0 0,59.84375 59.0938,0 0,-59.84375 -59.0938,0 z m 71.7188,0 0,59.84375 58.4687,0 0,-59.84375 -58.4687,0 z m 71.0937,0 0,59.84375 59.5937,0 0,-59.84375 -59.5937,0 z m 72.2187,0 0,59.84375 58.9688,0 0,-59.84375 -58.9688,0 z m 71.5938,0 0,59.84375 58.93749,0 0,-59.84375 -58.93749,0 z m -358.4688,72.46875 0,59.09375 59.2188,0 0,-59.09375 -59.2188,0 z m 71.8438,0 0,59.09375 59.0938,0 0,-59.09375 -59.0938,0 z m 71.7188,0 0,59.09375 58.4687,0 0,-59.09375 -58.4687,0 z m 71.0937,0 0,59.09375 59.5937,0 0,-59.09375 -59.5937,0 z m 72.2187,0 0,59.09375 58.9688,0 0,-59.09375 -58.9688,0 z m 71.5938,0 0,59.09375 58.93749,0 0,-59.09375 -58.93749,0 z m -358.4688,71.71875 0,59.15625 59.2188,0 0,-59.15625 -59.2188,0 z m 71.8438,0 0,59.15625 59.0938,0 0,-59.15625 -59.0938,0 z m 71.7188,0 0,59.15625 58.4687,0 0,-59.15625 -58.4687,0 z m 71.0937,0 0,59.15625 59.5937,0 0,-59.15625 -59.5937,0 z m 72.2187,0 0,59.15625 58.9688,0 0,-59.15625 -58.9688,0 z m 71.5938,0 0,59.15625 58.93749,0 0,-59.15625 -58.93749,0 z"
       id="rect3793" />
  </g>
</svg>
